<?xml version="1.0" encoding="UTF-8"?>
<svg version="1.1" xmlns="http://www.w3.org/2000/svg" width="300" height="300">
<path d="M0 0 C1.07411133 -0.0299707 1.07411133 -0.0299707 2.16992188 -0.06054688 C5.73493884 -0.05724287 7.64402429 0.0908419 10.4296875 2.3984375 C10.96851563 3.07132813 11.50734375 3.74421875 12.0625 4.4375 C13.1453125 4.9634375 13.1453125 4.9634375 14.25 5.5 C16.0625 6.4375 16.0625 6.4375 17.0625 9.4375 C17.03251471 10.91768281 16.96719508 12.39738694 16.875 13.875 C16.85453333 17.03198394 16.8509123 18.11588669 18.625 20.8125 C21.66853543 22.84152362 24.64762441 24.12408631 28.0625 25.4375 C28.0625 26.0975 28.0625 26.7575 28.0625 27.4375 C29.9496875 27.8396875 29.9496875 27.8396875 31.875 28.25 C35.25817947 29.08396557 36.65913339 29.92963919 39.0625 32.4375 C40.238125 32.7675 41.41375 33.0975 42.625 33.4375 C46.0625 34.4375 46.0625 34.4375 48.0625 37.4375 C50.85837727 37.76484865 50.85837727 37.76484865 54 37.5625 C59.80291621 37.35097207 59.80291621 37.35097207 63.0625 38.4375 C63.7225 39.4275 64.3825 40.4175 65.0625 41.4375 C66.238125 41.9325 67.41375 42.4275 68.625 42.9375 C69.759375 43.4325 70.89375 43.9275 72.0625 44.4375 C73.25358227 48.0107468 73.34129922 51.04586941 73.4375 54.8125 C73.48648438 56.11960938 73.53546875 57.42671875 73.5859375 58.7734375 C72.94124842 63.28626106 71.64750088 64.71458144 68.0625 67.4375 C67.0725 67.4375 66.0825 67.4375 65.0625 67.4375 C65.09802979 68.50709961 65.13355957 69.57669922 65.17016602 70.67871094 C65.30066132 74.65185054 65.42377655 78.62519065 65.54467773 82.59863281 C65.59800569 84.31744637 65.65332764 86.03619928 65.71069336 87.75488281 C65.79286178 90.22708054 65.86782729 92.69940855 65.94140625 95.171875 C65.98195885 96.32209137 65.98195885 96.32209137 66.02333069 97.49554443 C66.12146128 101.01349292 66.0177807 104.05603025 65.0625 107.4375 C66.3825 107.7675 67.7025 108.0975 69.0625 108.4375 C69.165625 109.076875 69.26875 109.71625 69.375 110.375 C69.7153125 111.3959375 69.7153125 111.3959375 70.0625 112.4375 C71.0525 112.7675 72.0425 113.0975 73.0625 113.4375 C73.08940104 116.22923055 73.10929053 119.02070348 73.125 121.8125 C73.13337891 122.6065625 73.14175781 123.400625 73.15039062 124.21875 C73.17578125 130.2109375 73.17578125 130.2109375 72.0625 132.4375 C69.72916667 133.4375 67.39583333 134.4375 65.0625 135.4375 C64.7325 136.0975 64.4025 136.7575 64.0625 137.4375 C62.79792969 137.47488281 61.53335938 137.51226562 60.23046875 137.55078125 C58.5702827 137.61643833 56.91012778 137.68288576 55.25 137.75 C54.41662109 137.77255859 53.58324219 137.79511719 52.72460938 137.81835938 C51.92216797 137.85380859 51.11972656 137.88925781 50.29296875 137.92578125 C49.55457764 137.95196533 48.81618652 137.97814941 48.05541992 138.00512695 C45.57026321 138.54429301 44.73034683 139.57130654 43.0625 141.4375 C41.0546875 142.31640625 41.0546875 142.31640625 38.9375 143 C36.84771731 143.64170651 36.84771731 143.64170651 35.0625 144.4375 C34.7325 145.0975 34.4025 145.7575 34.0625 146.4375 C31.73578135 147.45279541 29.4021553 148.45238198 27.0625 149.4375 C26.4025 150.0975 25.7425 150.7575 25.0625 151.4375 C23.5775 151.870625 23.5775 151.870625 22.0625 152.3125 C19.05672583 153.14109271 19.05672583 153.14109271 17.75 155.125 C16.83617359 158.19877974 16.42952984 161.25657471 16.0625 164.4375 C15.32 164.685 14.5775 164.9325 13.8125 165.1875 C10.98050097 166.2341326 10.98050097 166.2341326 9.359375 168.484375 C6.11170253 171.24600125 3.76762894 170.97061125 -0.4375 170.9375 C-2.40203125 170.95296875 -2.40203125 170.95296875 -4.40625 170.96875 C-8.43193485 170.363116 -9.39882195 169.48857179 -11.9375 166.4375 C-14.56972962 165.18313813 -14.56972962 165.18313813 -16.9375 164.4375 C-16.97488281 163.82261719 -17.01226562 163.20773438 -17.05078125 162.57421875 C-17.11652344 161.76597656 -17.18226563 160.95773438 -17.25 160.125 C-17.30800781 159.32449219 -17.36601562 158.52398437 -17.42578125 157.69921875 C-18.03249565 155.01763375 -18.78112154 154.1021627 -20.9375 152.4375 C-21.9275 152.1075 -22.9175 151.7775 -23.9375 151.4375 C-26.98610014 150.42129995 -27.80416922 149.66358429 -29.9375 147.4375 C-31.59188613 146.74091637 -33.26004318 146.07653117 -34.9375 145.4375 C-36.62246298 144.46864628 -38.28928756 143.46763277 -39.9375 142.4375 C-41.29875 141.633125 -41.29875 141.633125 -42.6875 140.8125 C-44.9375 139.4375 -44.9375 139.4375 -45.9375 138.4375 C-49.70471165 138.26746537 -53.46561486 138.14013415 -57.23632812 138.09570312 C-63.41544382 137.88021085 -63.41544382 137.88021085 -66.19921875 135.51953125 C-67.05966797 134.48892578 -67.05966797 134.48892578 -67.9375 133.4375 C-70.56972962 132.18313813 -70.56972962 132.18313813 -72.9375 131.4375 C-73.05394156 128.35448584 -73.12482432 125.27203877 -73.1875 122.1875 C-73.22101563 121.31480469 -73.25453125 120.44210938 -73.2890625 119.54296875 C-73.38796177 113.0650664 -73.38796177 113.0650664 -71.109375 109.890625 C-68.9375 108.4375 -68.9375 108.4375 -65.9375 107.4375 C-66.11152344 106.4475 -66.28554687 105.4575 -66.46484375 104.4375 C-67.33549076 97.47232392 -66.77851042 90.43120621 -66.5 83.4375 C-66.44667895 81.9804901 -66.39393955 80.5234588 -66.34179688 79.06640625 C-66.21374188 75.5231654 -66.07779866 71.98027965 -65.9375 68.4375 C-66.906875 67.963125 -67.87625 67.48875 -68.875 67 C-71.9375 65.4375 -71.9375 65.4375 -72.9375 64.4375 C-73.21492966 61.32104012 -73.16926472 58.18985077 -73.1875 55.0625 C-73.208125 54.1859375 -73.22875 53.309375 -73.25 52.40625 C-73.25515625 51.56320313 -73.2603125 50.72015625 -73.265625 49.8515625 C-73.2749707 49.0776416 -73.28431641 48.3037207 -73.29394531 47.50634766 C-72.84142032 44.87984303 -72.04501186 44.02824848 -69.9375 42.4375 C-66.75 41.75 -66.75 41.75 -63.9375 41.4375 C-63.6075 40.4475 -63.2775 39.4575 -62.9375 38.4375 C-58.8460591 37.07368637 -55.12281127 37.56517239 -50.84765625 37.79296875 C-47.20455419 37.34797239 -46.33379001 36.10794183 -43.9375 33.4375 C-41.61201993 32.74393577 -39.27869555 32.07600788 -36.9375 31.4375 C-35.31235532 29.97916642 -35.31235532 29.97916642 -33.9375 28.4375 C-32.27357955 27.76400839 -30.60717972 27.0965841 -28.9375 26.4375 C-28.6075 25.7775 -28.2775 25.1175 -27.9375 24.4375 C-26.24476482 23.70291681 -24.5493561 22.97128485 -22.82421875 22.31640625 C-20.46574459 21.21773816 -18.78935126 20.29340345 -16.9375 18.4375 C-16.45342066 15.46914137 -16.45342066 15.46914137 -16.6875 12.25 C-16.74164063 10.61998047 -16.74164063 10.61998047 -16.796875 8.95703125 C-16.84328125 8.12558594 -16.8896875 7.29414062 -16.9375 6.4375 C-16.009375 6.004375 -15.08125 5.57125 -14.125 5.125 C-11.00963514 3.760781 -11.00963514 3.760781 -9.734375 1.859375 C-6.82719684 -0.44108772 -3.54801531 -0.03494017 0 0 Z M-0.9375 12.4375 C-3.24421915 15.15299154 -3.24421915 15.15299154 -2.5625 17.625 C-2.35625 18.223125 -2.15 18.82125 -1.9375 19.4375 C-0.2875 19.1075 1.3625 18.7775 3.0625 18.4375 C2.55646008 16.26875748 2.06266187 14.43782373 1.0625 12.4375 C0.4025 12.4375 -0.2575 12.4375 -0.9375 12.4375 Z M-9.9375 34.4375 C-10.2675 35.7575 -10.5975 37.0775 -10.9375 38.4375 C-9.9475 38.4375 -8.9575 38.4375 -7.9375 38.4375 C-7.9375 37.1175 -7.9375 35.7975 -7.9375 34.4375 C-8.5975 34.4375 -9.2575 34.4375 -9.9375 34.4375 Z M8.0625 35.4375 C8.0625 36.4275 8.0625 37.4175 8.0625 38.4375 C9.0525 38.1075 10.0425 37.7775 11.0625 37.4375 C10.7325 36.7775 10.4025 36.1175 10.0625 35.4375 C9.4025 35.4375 8.7425 35.4375 8.0625 35.4375 Z M-18.75 40.4375 C-19.141875 41.0975 -19.53375 41.7575 -19.9375 42.4375 C-16.4725 41.9425 -16.4725 41.9425 -12.9375 41.4375 C-12.6075 40.4475 -12.2775 39.4575 -11.9375 38.4375 C-15.84957436 37.97358535 -15.84957436 37.97358535 -18.75 40.4375 Z M13.0625 38.4375 C13.0625 39.4275 13.0625 40.4175 13.0625 41.4375 C16.0325 41.9325 16.0325 41.9325 19.0625 42.4375 C18.7325 41.4475 18.4025 40.4575 18.0625 39.4375 C16.4125 39.1075 14.7625 38.7775 13.0625 38.4375 Z M-27.9375 45.4375 C-27.9375 46.0975 -27.9375 46.7575 -27.9375 47.4375 C-25.95258358 47.17073796 -25.95258358 47.17073796 -23.9375 46.4375 C-23.6075 45.4475 -23.2775 44.4575 -22.9375 43.4375 C-25.26107511 43.25259993 -25.26107511 43.25259993 -27.9375 45.4375 Z M23.0625 43.4375 C23.0625 44.4275 23.0625 45.4175 23.0625 46.4375 C24.3825 46.7675 25.7025 47.0975 27.0625 47.4375 C26.4025 46.1175 25.7425 44.7975 25.0625 43.4375 C24.4025 43.4375 23.7425 43.4375 23.0625 43.4375 Z M32.0625 49.4375 C32.01995644 51.43704746 32.02169217 53.43791636 32.0625 55.4375 C33.18784105 56.79368499 33.18784105 56.79368499 36.125 56.5 C37.094375 56.479375 38.06375 56.45875 39.0625 56.4375 C39.0625 55.1175 39.0625 53.7975 39.0625 52.4375 C38.27875 52.128125 37.495 51.81875 36.6875 51.5 C34.0625 50.4375 34.0625 50.4375 32.0625 49.4375 Z M-39.9375 52.4375 C-39.6075 53.7575 -39.2775 55.0775 -38.9375 56.4375 C-36.9575 56.4375 -34.9775 56.4375 -32.9375 56.4375 C-32.9375 54.4575 -32.9375 52.4775 -32.9375 50.4375 C-35.5840335 50.4375 -37.5183163 51.41889634 -39.9375 52.4375 Z M-58.9375 52.4375 C-59.2675 53.4275 -59.5975 54.4175 -59.9375 55.4375 C-59.6075 56.0975 -59.2775 56.7575 -58.9375 57.4375 C-57.2875 57.4375 -55.6375 57.4375 -53.9375 57.4375 C-53.34679986 55.49146726 -53.34679986 55.49146726 -52.9375 53.4375 C-54.00395115 52.14116379 -54.00395115 52.14116379 -56.5 52.375 C-57.304375 52.395625 -58.10875 52.41625 -58.9375 52.4375 Z M54.0625 52.4375 C53.7325 53.7575 53.4025 55.0775 53.0625 56.4375 C55.5375 56.9325 55.5375 56.9325 58.0625 57.4375 C58.3925 56.1175 58.7225 54.7975 59.0625 53.4375 C57.4125 53.1075 55.7625 52.7775 54.0625 52.4375 Z M12.0625 56.4375 C12.3925 58.0875 12.7225 59.7375 13.0625 61.4375 C15.3725 61.4375 17.6825 61.4375 20.0625 61.4375 C19.7325 60.4475 19.4025 59.4575 19.0625 58.4375 C15.55059191 57.20780122 15.55059191 57.20780122 12.0625 56.4375 Z M-19.9375 59.4375 C-20.2675 60.0975 -20.5975 60.7575 -20.9375 61.4375 C-18.2975 61.4375 -15.6575 61.4375 -12.9375 61.4375 C-12.6075 59.7875 -12.2775 58.1375 -11.9375 56.4375 C-14.62868043 56.4375 -17.55981064 58.3335728 -19.9375 59.4375 Z M-47.9375 67.4375 C-49.55482041 70.67214083 -48.93625197 74.18458451 -48.81640625 77.7265625 C-48.79279526 78.54498627 -48.76918427 79.36341003 -48.74485779 80.20663452 C-48.66817056 82.8254306 -48.58416817 85.44393471 -48.5 88.0625 C-48.44678437 89.83592312 -48.39404393 91.60936058 -48.34179688 93.3828125 C-48.2125486 97.73456054 -48.07673848 102.08606061 -47.9375 106.4375 C-46.6175 105.4475 -45.2975 104.4575 -43.9375 103.4375 C-44.2675 102.24125 -44.5975 101.045 -44.9375 99.8125 C-46.99247919 90.60152943 -46.78036981 80.25611828 -44.3125 71.125 C-43.72780774 69.33139066 -43.72780774 69.33139066 -44.9375 67.4375 C-45.9275 67.4375 -46.9175 67.4375 -47.9375 67.4375 Z M45.0625 67.4375 C44.4025 68.7575 43.7425 70.0775 43.0625 71.4375 C44.0525 72.4275 45.0425 73.4175 46.0625 74.4375 C47.5231285 71.79011084 48.0625 70.54301666 48.0625 67.4375 C47.0725 67.4375 46.0825 67.4375 45.0625 67.4375 Z M46.0625 75.4375 C46.0625 77.0875 46.0625 78.7375 46.0625 80.4375 C46.3925 80.4375 46.7225 80.4375 47.0625 80.4375 C47.0625 78.7875 47.0625 77.1375 47.0625 75.4375 C46.7325 75.4375 46.4025 75.4375 46.0625 75.4375 Z M-31.9375 81.4375 C-31.79716889 83.41706441 -31.6500877 85.39615141 -31.5 87.375 C-31.41878906 88.47714844 -31.33757812 89.57929688 -31.25390625 90.71484375 C-31.23331916 93.34859903 -31.23331916 93.34859903 -29.9375 94.4375 C-28.41821962 94.50929964 -26.89582518 94.52142007 -25.375 94.5 C-24.13556641 94.48646484 -24.13556641 94.48646484 -22.87109375 94.47265625 C-22.23300781 94.46105469 -21.59492188 94.44945312 -20.9375 94.4375 C-21.49759026 90.93315146 -22.55321748 89.55797667 -25.3125 87.375 C-27.65624942 85.49501376 -29.84704514 83.59849168 -31.9375 81.4375 Z M30.0625 81.4375 C29.7325 82.7575 29.4025 84.0775 29.0625 85.4375 C28.2271875 85.499375 28.2271875 85.499375 27.375 85.5625 C23.768105 86.92727108 22.33211504 89.34830176 20.0625 92.4375 C20.0625 93.0975 20.0625 93.7575 20.0625 94.4375 C23.3625 94.4375 26.6625 94.4375 30.0625 94.4375 C30.206875 93.57125 30.35125 92.705 30.5 91.8125 C31.28125 87.125 31.28125 87.125 32.0625 82.4375 C31.4025 82.1075 30.7425 81.7775 30.0625 81.4375 Z M47.0625 93.4375 C44.8296123 95.6703877 44.69471848 96.35659815 44.3125 99.375 C44.21453125 100.06464844 44.1165625 100.75429687 44.015625 101.46484375 C43.89435177 103.7646202 43.89435177 103.7646202 46.0625 106.4375 C46.7225 106.4375 47.3825 106.4375 48.0625 106.4375 C48.0625 102.1475 48.0625 97.8575 48.0625 93.4375 C47.7325 93.4375 47.4025 93.4375 47.0625 93.4375 Z M-23.9375 109.4375 C-23.9375 110.0975 -23.9375 110.7575 -23.9375 111.4375 C-20.80251708 113.29526765 -18.56278568 113.63890476 -14.9375 113.4375 C-15.2675 111.7875 -15.5975 110.1375 -15.9375 108.4375 C-18.98136724 108.35523332 -21.00925348 108.46141783 -23.9375 109.4375 Z M16.0625 108.4375 C13.15078211 112.10730204 13.15078211 112.10730204 12.0625 116.4375 C13.0525 116.1075 14.0425 115.7775 15.0625 115.4375 C15.0625 114.7775 15.0625 114.1175 15.0625 113.4375 C17.7025 112.7775 20.3425 112.1175 23.0625 111.4375 C23.0625 110.7775 23.0625 110.1175 23.0625 109.4375 C20.7525 109.1075 18.4425 108.7775 16.0625 108.4375 Z M-14.9375 113.4375 C-14.6075 114.7575 -14.2775 116.0775 -13.9375 117.4375 C-13.6075 116.1175 -13.2775 114.7975 -12.9375 113.4375 C-13.5975 113.4375 -14.2575 113.4375 -14.9375 113.4375 Z M-58.9375 118.4375 C-59.2675 119.4275 -59.5975 120.4175 -59.9375 121.4375 C-58.9475 122.9225 -58.9475 122.9225 -57.9375 124.4375 C-56.6175 124.1075 -55.2975 123.7775 -53.9375 123.4375 C-53.34679986 121.49146726 -53.34679986 121.49146726 -52.9375 119.4375 C-54.00395115 118.14116379 -54.00395115 118.14116379 -56.5 118.375 C-57.304375 118.395625 -58.10875 118.41625 -58.9375 118.4375 Z M-39.9375 118.4375 C-40.2675 119.4275 -40.5975 120.4175 -40.9375 121.4375 C-39.81215895 122.79368499 -39.81215895 122.79368499 -36.875 122.5 C-35.905625 122.479375 -34.93625 122.45875 -33.9375 122.4375 C-33.9375 121.1175 -33.9375 119.7975 -33.9375 118.4375 C-35.9175 118.4375 -37.8975 118.4375 -39.9375 118.4375 Z M34.0625 118.4375 C34.02125 119.05625 33.98 119.675 33.9375 120.3125 C33.64875 121.01375 33.36 121.715 33.0625 122.4375 C30 123.6875 30 123.6875 27.0625 124.4375 C27.0625 125.4275 27.0625 126.4175 27.0625 127.4375 C29.49967258 127.16715366 29.49967258 127.16715366 32.0625 126.4375 C32.7225 125.4475 33.3825 124.4575 34.0625 123.4375 C37.1875 122.75 37.1875 122.75 40.0625 122.4375 C39.7325 121.1175 39.4025 119.7975 39.0625 118.4375 C37.4125 118.4375 35.7625 118.4375 34.0625 118.4375 Z M53.0625 118.4375 C53.3925 120.0875 53.7225 121.7375 54.0625 123.4375 C55.3825 123.4375 56.7025 123.4375 58.0625 123.4375 C58.3925 121.7875 58.7225 120.1375 59.0625 118.4375 C57.0825 118.4375 55.1025 118.4375 53.0625 118.4375 Z M-33.9375 122.4375 C-32.72719026 125.01077433 -32.72719026 125.01077433 -30.9375 127.4375 C-29.6175 127.4375 -28.2975 127.4375 -26.9375 127.4375 C-27.57729849 125.40508273 -27.57729849 125.40508273 -28.9375 123.4375 C-31.49269921 122.62578772 -31.49269921 122.62578772 -33.9375 122.4375 Z M-25.9375 127.4375 C-25.2775 128.7575 -24.6175 130.0775 -23.9375 131.4375 C-22.6175 131.4375 -21.2975 131.4375 -19.9375 131.4375 C-20.2675 130.4475 -20.5975 129.4575 -20.9375 128.4375 C-22.5875 128.1075 -24.2375 127.7775 -25.9375 127.4375 Z M19.0625 129.4375 C19.3925 130.4275 19.7225 131.4175 20.0625 132.4375 C21.7125 131.7775 23.3625 131.1175 25.0625 130.4375 C25.0625 129.4475 25.0625 128.4575 25.0625 127.4375 C21.87759993 127.1601499 21.87759993 127.1601499 19.0625 129.4375 Z M-17.9375 132.4375 C-17.6075 133.4275 -17.2775 134.4175 -16.9375 135.4375 C-15.7825 135.7675 -14.6275 136.0975 -13.4375 136.4375 C-12.2825 136.7675 -11.1275 137.0975 -9.9375 137.4375 C-9.6075 138.4275 -9.2775 139.4175 -8.9375 140.4375 C-8.2775 140.4375 -7.6175 140.4375 -6.9375 140.4375 C-7.50489868 136.30776372 -7.50489868 136.30776372 -8.9375 132.4375 C-11.9075 132.4375 -14.8775 132.4375 -17.9375 132.4375 Z M8.0625 132.4375 C7.7325 135.0775 7.4025 137.7175 7.0625 140.4375 C7.43375 139.98375 7.805 139.53 8.1875 139.0625 C10.0625 137.4375 10.0625 137.4375 13.1875 136.4375 C14.13625 136.1075 15.085 135.7775 16.0625 135.4375 C16.3925 134.4475 16.7225 133.4575 17.0625 132.4375 C14.0925 132.4375 11.1225 132.4375 8.0625 132.4375 Z M-2.9375 151.4375 C-2.6075 153.7475 -2.2775 156.0575 -1.9375 158.4375 C-0.9475 158.7675 0.0425 159.0975 1.0625 159.4375 C2.49194945 157.08311267 3.14911261 155.95717567 2.6875 153.1875 C2.48125 152.61 2.275 152.0325 2.0625 151.4375 C0.4125 151.4375 -1.2375 151.4375 -2.9375 151.4375 Z " fill="#01ABB5" transform="translate(149.9375,43.5625)"/>
<path d="M0 0 C3.34192692 0.24453124 4.60543557 0.60543557 7 3 C9.27566639 4.02302257 9.27566639 4.02302257 12 4 C14.01920337 2.69593116 16.01924973 1.36176581 18 0 C20.6875 -0.4375 20.6875 -0.4375 23 0 C23.40476563 0.50015625 23.80953125 1.0003125 24.2265625 1.515625 C26.92527928 3.77446283 29.24359464 3.28979422 32.6875 3.1875 C33.86699219 3.16042969 35.04648438 3.13335937 36.26171875 3.10546875 C37.16535156 3.07066406 38.06898438 3.03585938 39 3 C39 2.34 39 1.68 39 1 C43.70913955 -0.07962174 46.92435201 0.22957458 51.5625 1.5 C55.78227774 2.6531077 58.77557641 3.36607019 63 2 C63.66 1.34 64.32 0.68 65 0 C67.5 -0.3125 67.5 -0.3125 70 0 C70.99 1.485 70.99 1.485 72 3 C75.05429073 4.21284876 75.05429073 4.21284876 78 5 C78 4.34 78 3.68 78 3 C81.64581687 2.97112488 85.29160463 2.95324415 88.9375 2.9375 C89.97841797 2.92912109 91.01933594 2.92074219 92.09179688 2.91210938 C93.08115234 2.90888672 94.07050781 2.90566406 95.08984375 2.90234375 C96.46450806 2.89448853 96.46450806 2.89448853 97.86694336 2.88647461 C100 3 100 3 101 4 C101.08726223 5.78071246 101.10699041 7.5648314 101.09765625 9.34765625 C101.09443359 10.42724609 101.09121094 11.50683594 101.08789062 12.61914062 C101.07951172 13.75544922 101.07113281 14.89175781 101.0625 16.0625 C101.05798828 17.20267578 101.05347656 18.34285156 101.04882812 19.51757812 C101.03699747 22.34510351 101.0205141 25.1725264 101 28 C96 28 91 28 86 28 C85.32839844 28.03480469 84.65679687 28.06960937 83.96484375 28.10546875 C78.43875686 28.32906764 78.43875686 28.32906764 76 26.5 C75.67 26.005 75.34 25.51 75 25 C74.505 26.485 74.505 26.485 74 28 C71.56045342 29.21977329 69.84694151 29.20153813 67.125 29.25 C66.26132813 29.27578125 65.39765625 29.3015625 64.5078125 29.328125 C61.54975351 28.94108924 60.20798216 27.95124005 58 26 C57.01 27.485 57.01 27.485 56 29 C53.06665039 29.35644531 53.06665039 29.35644531 49.34765625 29.328125 C48.69171982 29.32625183 48.03578339 29.32437866 47.35997009 29.32244873 C45.97210614 29.31572429 44.58426127 29.3018018 43.1965332 29.28125 C41.07420188 29.25017136 38.95261417 29.24028667 36.83007812 29.234375 C24.24061795 29.14872033 24.24061795 29.14872033 21.3125 26.4375 C20.879375 25.963125 20.44625 25.48875 20 25 C19.505 26.485 19.505 26.485 19 28 C13.375 28.25 13.375 28.25 10 26 C10 26.66 10 27.32 10 28 C4.76655404 29.74448199 -0.87957435 29.67853621 -6.125 28 C-6.74375 27.67 -7.3625 27.34 -8 27 C-8.33 27.33 -8.66 27.66 -9 28 C-13.23314767 28.23961213 -16.36736489 28.32488647 -20 26 C-20.66 26.66 -21.32 27.32 -22 28 C-24.1640625 28.1953125 -24.1640625 28.1953125 -26.625 28.125 C-27.44226563 28.10695312 -28.25953125 28.08890625 -29.1015625 28.0703125 C-29.72804688 28.04710937 -30.35453125 28.02390625 -31 28 C-31.02886984 24.02084841 -31.04675406 20.04172347 -31.0625 16.0625 C-31.07087891 14.92619141 -31.07925781 13.78988281 -31.08789062 12.61914062 C-31.09111328 11.53955078 -31.09433594 10.45996094 -31.09765625 9.34765625 C-31.10289307 8.34742432 -31.10812988 7.34719238 -31.11352539 6.31665039 C-31 4 -31 4 -30 3 C-28.31391034 2.92794489 -26.62499341 2.91613932 -24.9375 2.9375 C-24.01839844 2.94652344 -23.09929687 2.95554688 -22.15234375 2.96484375 C-21.44207031 2.97644531 -20.73179688 2.98804688 -20 3 C-20 4.32 -20 5.64 -20 7 C-19.34 7 -18.68 7 -18 7 C-18 5.68 -18 4.36 -18 3 C-16.95199219 3.03480469 -15.90398437 3.06960937 -14.82421875 3.10546875 C-13.44532853 3.13360937 -12.06642098 3.16090924 -10.6875 3.1875 C-9.99720703 3.21263672 -9.30691406 3.23777344 -8.59570312 3.26367188 C-4.56533464 3.39721372 -4.56533464 3.39721372 -1.1796875 1.4765625 C-0.79039063 0.98929688 -0.40109375 0.50203125 0 0 Z " fill="#045B6A" transform="translate(103,218)"/>
<path d="M0 0 C2.31 0 4.62 0 7 0 C7.19207031 0.64710937 7.38414063 1.29421875 7.58203125 1.9609375 C8.04996094 2.63382812 8.51789063 3.30671875 9 4 C12.10513913 4.63511168 12.10513913 4.63511168 15.6875 4.625 C20.83766385 4.84201615 25.15796493 5.27070176 30 7 C30.33 8.32 30.66 9.64 31 11 C33.475 11.495 33.475 11.495 36 12 C36 12.66 36 13.32 36 14 C36.5775 14.0825 37.155 14.165 37.75 14.25 C40.61239404 15.20413135 41.88585379 16.88585379 44 19 C46.06874034 19.6425235 46.06874034 19.6425235 48 20 C48.22601462 24.08255655 48.42774673 28.16596075 48.625 32.25 C48.68945312 33.40886719 48.75390625 34.56773437 48.8203125 35.76171875 C48.871875 36.87675781 48.9234375 37.99179688 48.9765625 39.140625 C49.02893066 40.16704102 49.08129883 41.19345703 49.13525391 42.25097656 C48.99446745 45.11244867 48.39311397 46.54748377 47 49 C46.54724722 51.81496741 46.54724722 51.81496741 46.375 54.75 C46.30023438 55.73484375 46.22546875 56.7196875 46.1484375 57.734375 C46.09945312 58.48203125 46.05046875 59.2296875 46 60 C45.34 59.01 44.68 58.02 44 57 C43.80083984 58.03060547 43.80083984 58.03060547 43.59765625 59.08203125 C43.42105469 59.98308594 43.24445313 60.88414062 43.0625 61.8125 C42.88847656 62.70582031 42.71445313 63.59914062 42.53515625 64.51953125 C42 67 42 67 41 70 C40.34 68.68 39.68 67.36 39 66 C36.03 66 33.06 66 30 66 C32.50816459 68.50816459 33.90837736 69.61410019 37 71 C34.69 71 32.38 71 30 71 C29.67 69.68 29.34 68.36 29 67 C28.29875 67.0825 27.5975 67.165 26.875 67.25 C23.03179024 66.91580785 21.01523575 65.32995489 18 63 C17.67 62.34 17.34 61.68 17 61 C18.32 61 19.64 61 21 61 C18.78065836 57.67098753 17.65316671 57.24976756 14 56 C13.25 52.75 13.25 52.75 13 49 C15.16086781 46.03881077 17.59116684 44.31954832 21 43 C21.99 43 22.98 43 24 43 C24 43.66 24 44.32 24 45 C26.97 45.66 29.94 46.32 33 47 C32.67 45.35 32.34 43.7 32 42 C30.515 41.505 30.515 41.505 29 41 C28.95101562 40.34773438 28.90203125 39.69546875 28.8515625 39.0234375 C27.99875367 28.92548062 27.99875367 28.92548062 21.9375 21.125 C19.73851064 18.9650508 19.73851064 18.9650508 17 18 C17.14230808 19.41702513 17.28900746 20.8336096 17.4375 22.25 C17.55931641 23.43335938 17.55931641 23.43335938 17.68359375 24.640625 C17.97634993 26.82364639 18.42064419 28.8773182 19 31 C18.01 31 17.02 31 16 31 C14.27719094 27.55438189 14.67268496 23.40296794 14.5703125 19.5859375 C14.37836994 15.52315326 14.05152651 12.82894457 11 10 C7.87413125 9.66602213 7.87413125 9.66602213 5 10 C4.09166031 12.72501908 3.81640015 14.62233971 3.68359375 17.44921875 C3.64169922 18.29677734 3.59980469 19.14433594 3.55664062 20.01757812 C3.51732422 20.89865234 3.47800781 21.77972656 3.4375 22.6875 C3.39431641 23.58017578 3.35113281 24.47285156 3.30664062 25.39257812 C3.20064647 27.59490108 3.09857949 29.79733473 3 32 C-1.52319576 23.74127423 0.70606412 11.84803839 3 3 C3 2.34 3 1.68 3 1 C2.01 0.67 1.02 0.34 0 0 Z M33 47 C33.33 48.32 33.66 49.64 34 51 C34.33 49.68 34.66 48.36 35 47 C34.34 47 33.68 47 33 47 Z M22 61 C22.66 62.32 23.32 63.64 24 65 C25.32 65 26.64 65 28 65 C27.67 64.01 27.34 63.02 27 62 C25.35 61.67 23.7 61.34 22 61 Z " fill="#018994" transform="translate(102,110)"/>
<path d="M0 0 C0.99 0.33 1.98 0.66 3 1 C1.68 3.31 0.36 5.62 -1 8 C-0.21625 7.34 0.5675 6.68 1.375 6 C4 4 4 4 6 4 C6 5.32 6 6.64 6 8 C4.02 8.66 2.04 9.32 0 10 C0 12.64 0 15.28 0 18 C1.134375 18.268125 2.26875 18.53625 3.4375 18.8125 C4.613125 19.204375 5.78875 19.59625 7 20 C7.33 20.99 7.66 21.98 8 23 C8.99 22.67 9.98 22.34 11 22 C11.33 20.35 11.66 18.7 12 17 C12.66 17 13.32 17 14 17 C14 17.66 14 18.32 14 19 C16.44480079 18.81171228 16.44480079 18.81171228 19 18 C20.36020151 16.03241727 20.36020151 16.03241727 21 14 C22.98 14 24.96 14 27 14 C26.505 12.515 26.505 12.515 26 11 C24.35 11 22.7 11 21 11 C20.67 11.99 20.34 12.98 20 14 C19.01 14.33 18.02 14.66 17 15 C17 11.7 17 8.4 17 5 C18.98 4.67 20.96 4.34 23 4 C23.0825 4.61875 23.165 5.2375 23.25 5.875 C23.81258459 8.18437567 23.81258459 8.18437567 26.0625 9.25 C27.0215625 9.62125 27.0215625 9.62125 28 10 C28 10.66 28 11.32 28 12 C28.66 12.33 29.32 12.66 30 13 C29.773125 13.598125 29.54625 14.19625 29.3125 14.8125 C29.209375 15.534375 29.10625 16.25625 29 17 C30.29078411 18.4587688 30.29078411 18.4587688 32 20 C32.28875 21.010625 32.5775 22.02125 32.875 23.0625 C34.72847902 26.27360029 34.72847902 26.27360029 38.08203125 26.83203125 C41.38697659 27.32974241 44.66959029 27.72444542 48 28 C48 28.33 48 28.66 48 29 C46.95199219 29.03738281 45.90398437 29.07476562 44.82421875 29.11328125 C43.44527695 29.17894515 42.06637229 29.24539235 40.6875 29.3125 C39.99720703 29.33505859 39.30691406 29.35761719 38.59570312 29.38085938 C34.62403661 29.52718098 34.62403661 29.52718098 31.27734375 31.4453125 C30.85582031 31.95835937 30.43429688 32.47140625 30 33 C27.9921875 33.87890625 27.9921875 33.87890625 25.875 34.5625 C23.78521731 35.20420651 23.78521731 35.20420651 22 36 C21.505 36.99 21.505 36.99 21 38 C18.67328135 39.01529541 16.3396553 40.01488198 14 41 C13.34 41.66 12.68 42.32 12 43 C11.01 43.28875 10.02 43.5775 9 43.875 C5.99422583 44.70359271 5.99422583 44.70359271 4.6875 46.6875 C3.77367359 49.76127974 3.36702984 52.81907471 3 56 C2.2575 56.2475 1.515 56.495 0.75 56.75 C-2.09711205 57.82629253 -2.09711205 57.82629253 -3.9375 60.125 C-6 62 -6 62 -9.25 62.25 C-10.1575 62.1675 -11.065 62.085 -12 62 C-8.25 60 -8.25 60 -6 60 C-6 59.34 -6 58.68 -6 58 C-4.34997172 56.64613064 -2.6825613 55.31321858 -1 54 C-0.67 53.34 -0.34 52.68 0 52 C0.66 52 1.32 52 2 52 C1.814375 51.0925 1.62875 50.185 1.4375 49.25 C1.04265379 46.31685676 1.05308428 44.7355343 2 42 C3.65 42 5.3 42 7 42 C7.33 40.35 7.66 38.7 8 37 C9.485 36.505 9.485 36.505 11 36 C11.4125 35.360625 11.825 34.72125 12.25 34.0625 C14.71139565 31.16156942 17.39276321 30.93520954 21 30 C21.33 29.34 21.66 28.68 22 28 C24.64860427 27.40644386 27.29197322 27.25790731 30 27 C30 24.36 30 21.72 30 19 C19.9023104 18.46119048 14.91006675 21.00112007 7.24609375 27.4765625 C4.79055437 29.14205878 2.91835084 29.62046052 0 30 C0 28 0 28 2 25.875 C2.66 25.25625 3.32 24.6375 4 24 C1.03 24 -1.94 24 -5 24 C-5.33 24.99 -5.66 25.98 -6 27 C-6 21.72 -6 16.44 -6 11 C-5.01 10.67 -4.02 10.34 -3 10 C-2.67 8.02 -2.34 6.04 -2 4 C-1.34 4 -0.68 4 0 4 C0 2.68 0 1.36 0 0 Z " fill="#029BA6" transform="translate(163,152)"/>
<path d="M0 0 C4.76065624 0.0534048 9.49903856 0.55992019 14 2.1875 C15.29758261 4.78266521 15.13269102 6.72933027 15.125 9.625 C15.12886719 11.07712891 15.12886719 11.07712891 15.1328125 12.55859375 C15 15.1875 15 15.1875 14 18.1875 C11.9375 18.875 11.9375 18.875 10 19.1875 C10.061875 20.30125 10.12375 21.415 10.1875 22.5625 C10.125625 23.75875 10.06375 24.955 10 26.1875 C6.88529393 28.26397071 5.55611254 28.5499111 1.9375 28.875 C1.05964844 28.96136719 0.18179688 29.04773438 -0.72265625 29.13671875 C-3 29.1875 -3 29.1875 -5 28.1875 C-5.0272415 26.77094207 -5.04650467 25.35422955 -5.0625 23.9375 C-5.07410156 23.14859375 -5.08570313 22.3596875 -5.09765625 21.546875 C-5 19.1875 -5 19.1875 -4.43359375 16.953125 C-4.21896484 16.07914063 -4.21896484 16.07914063 -4 15.1875 C-4.33 14.8575 -4.66 14.5275 -5 14.1875 C-5.0989294 12.02269203 -5.129711 9.85456215 -5.125 7.6875 C-5.12757813 6.5015625 -5.13015625 5.315625 -5.1328125 4.09375 C-4.93501754 -0.23446916 -3.96018403 0.0343766 0 0 Z " fill="#045664" transform="translate(213,217.8125)"/>
<path d="M0 0 C0.66 0.33 1.32 0.66 2 1 C2 1.33 2 1.66 2 2 C3.670625 2.37125 3.670625 2.37125 5.375 2.75 C9 4 9 4 10.4375 6.125 C10.7159375 7.053125 10.7159375 7.053125 11 8 C10.01 8 9.02 8 8 8 C7.74969023 10.41619823 7.74969023 10.41619823 8 13 C8.99 13.66 9.98 14.32 11 15 C11 15.66 11 16.32 11 17 C10.34 17 9.68 17 9 17 C9 18.32 9 19.64 9 21 C10.32 21.33 11.64 21.66 13 22 C13 23.65 13 25.3 13 27 C15.31 26.67 17.62 26.34 20 26 C20.495 28.475 20.495 28.475 21 31 C22.65 30.67 24.3 30.34 26 30 C27.26237731 32.52475462 27.09856404 34.31200466 27.0625 37.125 C27.05347656 38.03507812 27.04445312 38.94515625 27.03515625 39.8828125 C27.02355469 40.58148438 27.01195312 41.28015625 27 42 C27.66 42 28.32 42 29 42 C29 42.99 29 43.98 29 45 C29.99 45 30.98 45 32 45 C32.66 45.99 33.32 46.98 34 48 C37.55672179 49.2188121 37.55672179 49.2188121 41 50 C41 50.33 41 50.66 41 51 C37.75 51.25 37.75 51.25 34 51 C31.875 49.125 31.875 49.125 30 47 C27.36777038 45.74563813 27.36777038 45.74563813 25 45 C24.94392578 44.07767578 24.94392578 44.07767578 24.88671875 43.13671875 C24.78810547 41.92435547 24.78810547 41.92435547 24.6875 40.6875 C24.62949219 39.88699219 24.57148438 39.08648437 24.51171875 38.26171875 C23.90500435 35.58013375 23.15637846 34.6646627 21 33 C20.01 32.67 19.02 32.34 18 32 C14.95139986 30.98379995 14.13333078 30.22608429 12 28 C10.34561387 27.30341637 8.67745682 26.63903117 7 26 C5.31503702 25.03114628 3.64821244 24.03013277 2 23 C1.0925 22.46375 0.185 21.9275 -0.75 21.375 C-3 20 -3 20 -4 19 C-7.76721165 18.82996537 -11.52811486 18.70263415 -15.29882812 18.65820312 C-21.45785688 18.44341137 -21.45785688 18.44341137 -24.40234375 16.03515625 C-24.92957031 15.36355469 -25.45679687 14.69195312 -26 14 C-28.63222962 12.74563813 -28.63222962 12.74563813 -31 12 C-31 9.03 -31 6.06 -31 3 C-28.23776722 5.76223278 -28.42143709 8.20706617 -28 12 C-26.8553125 12.1546875 -26.8553125 12.1546875 -25.6875 12.3125 C-23 13 -23 13 -21.65625 14.5 C-19.41809597 16.52700742 -17.78903931 16.49421823 -14.8125 16.6875 C-13.91144531 16.75324219 -13.01039062 16.81898438 -12.08203125 16.88671875 C-11.39496094 16.92410156 -10.70789063 16.96148437 -10 17 C-10 16.34 -10 15.68 -10 15 C-7 14 -7 14 -4 15 C-3.236875 14.236875 -2.47375 13.47375 -1.6875 12.6875 C-0.800625 11.800625 0.08625 10.91375 1 10 C1.556875 9.401875 2.11375 8.80375 2.6875 8.1875 C4 7 4 7 6 7 C5.505 6.01 5.505 6.01 5 5 C2.97536745 4.34786708 2.97536745 4.34786708 1 4 C0.67 2.68 0.34 1.36 0 0 Z " fill="#009EAD" transform="translate(108,163)"/>
<path d="M0 0 C3.6875 -0.3125 3.6875 -0.3125 7 0 C7.12375 0.969375 7.2475 1.93875 7.375 2.9375 C7.58125 3.948125 7.7875 4.95875 8 6 C8.66 6.33 9.32 6.66 10 7 C9.67 8.98 9.34 10.96 9 13 C8.505 11.515 8.505 11.515 8 10 C5.69 10 3.38 10 1 10 C0.67 11.32 0.34 12.64 0 14 C-1.11375 14.268125 -2.2275 14.53625 -3.375 14.8125 C-7.21840951 15.65809019 -7.21840951 15.65809019 -9 19 C-10.9453125 19.29296875 -10.9453125 19.29296875 -13.125 19.1875 C-14.40375 19.125625 -15.6825 19.06375 -17 19 C-17 20.65 -17 22.3 -17 24 C-18.75 24.75 -18.75 24.75 -21 25 C-23.70293647 23.04787921 -24.81290174 21.74839302 -25.625 18.5 C-25 16 -25 16 -22.125 13.875 C-21.09375 13.25625 -20.0625 12.6375 -19 12 C-18.34 11.01 -17.68 10.02 -17 9 C-13.4501757 7.81672523 -9.90608857 6.97965252 -6.25 6.1875 C-2.81283216 5.32777709 -2.81283216 5.32777709 -1.5 2.375 C-1.005 1.59125 -0.51 0.8075 0 0 Z " fill="#00CFD9" transform="translate(131,67)"/>
<path d="M0 0 C0 1.98 0 3.96 0 6 C1.6396875 5.443125 1.6396875 5.443125 3.3125 4.875 C4.529375 4.58625 5.74625 4.2975 7 4 C7.99 4.66 8.98 5.32 10 6 C10 6.99 10 7.98 10 9 C12.475 9.495 12.475 9.495 15 10 C15.33 10.99 15.66 11.98 16 13 C17.9490625 12.814375 17.9490625 12.814375 19.9375 12.625 C20.66839844 12.55539063 21.39929688 12.48578125 22.15234375 12.4140625 C22.76207031 12.27742188 23.37179688 12.14078125 24 12 C24.33 11.34 24.66 10.68 25 10 C26.25 12.125 26.25 12.125 27 15 C25.28818239 18.1179535 23.50958301 20.49041699 21 23 C17.375 23.125 17.375 23.125 14 23 C14 21.35 14 19.7 14 18 C11.69 18 9.38 18 7 18 C6.67 16.68 6.34 15.36 6 14 C4.865625 13.731875 3.73125 13.46375 2.5625 13.1875 C0.7990625 12.5996875 0.7990625 12.5996875 -1 12 C-1.33 11.01 -1.66 10.02 -2 9 C-4.97 8.505 -4.97 8.505 -8 8 C-8 5.69 -8 3.38 -8 1 C-5.23735711 0.40267181 -2.83967231 0 0 0 Z " fill="#00DCE4" transform="translate(171,68)"/>
<path d="M0 0 C3.96 1.65 7.92 3.3 12 5 C12 5.66 12 6.32 12 7 C13.258125 7.268125 14.51625 7.53625 15.8125 7.8125 C19.16552249 8.64047928 20.65976594 9.44701739 23 12 C26.10007201 13.20049407 26.10007201 13.20049407 29 14 C29 14.66 29 15.32 29 16 C26.21136993 17.39431504 24.07921132 17.25660094 21 17 C20.34 16.01 19.68 15.02 19 14 C18.34 13.835 17.68 13.67 17 13.5 C15 13 15 13 13 10 C12.01 10 11.02 10 10 10 C8.33333333 10 6.66666667 10 5 10 C5 8.02 5 6.04 5 4 C2.36 4.33 -0.28 4.66 -3 5 C-3 7.31 -3 9.62 -3 12 C-1.02 12 0.96 12 3 12 C3.2784375 12.928125 3.2784375 12.928125 3.5625 13.875 C5.71437233 17.05602866 8.37533763 17.19451947 12 18 C12 19.32 12 20.64 12 22 C12.78375 21.814375 13.5675 21.62875 14.375 21.4375 C17 21 17 21 19 22 C19 23.65 19 25.3 19 27 C23.64586892 26.51515724 23.64586892 26.51515724 28 25 C27.6875 26.875 27.6875 26.875 27 29 C26.01 29.66 25.02 30.32 24 31 C20.375 29.875 20.375 29.875 17 28 C16.0625 25.8125 16.0625 25.8125 16 24 C15.236875 24.103125 14.47375 24.20625 13.6875 24.3125 C12.800625 24.209375 11.91375 24.10625 11 24 C10.525625 23.175 10.05125 22.35 9.5625 21.5 C9.046875 20.675 8.53125 19.85 8 19 C5.08365871 18.7497843 5.08365871 18.7497843 2 19 C0.31763529 18.37400383 -1.3523962 17.71247732 -3 17 C-3.99 17 -4.98 17 -6 17 C-8.07802341 13.57737321 -8.07802341 13.57737321 -7.74609375 11.12109375 C-6.86396295 8.61325593 -5.6333376 6.9052138 -4 4.8125 C-3.195625 3.77029297 -3.195625 3.77029297 -2.375 2.70703125 C-1 1 -1 1 0 0 Z " fill="#01CAD1" transform="translate(166,64)"/>
<path d="M0 0 C0 0.66 0 1.32 0 2 C4.455 2.99 4.455 2.99 9 4 C9.33 5.32 9.66 6.64 10 8 C8.02 8 6.04 8 4 8 C3.67 6.68 3.34 5.36 3 4 C0.69 4.33 -1.62 4.66 -4 5 C-4.66 7.31 -5.32 9.62 -6 12 C-3.03 12 -0.06 12 3 12 C3.33 13.65 3.66 15.3 4 17 C5.98 16.67 7.96 16.34 10 16 C10.66 14.02 11.32 12.04 12 10 C12.33 10.66 12.66 11.32 13 12 C13.66 12 14.32 12 15 12 C14.67 14.64 14.34 17.28 14 20 C14.99 20.33 15.98 20.66 17 21 C17.33 22.65 17.66 24.3 18 26 C17.34 26.33 16.68 26.66 16 27 C15.67 25.68 15.34 24.36 15 23 C12.03 23 9.06 23 6 23 C8.50816459 25.50816459 9.90837736 26.61410019 13 28 C10.69 28 8.38 28 6 28 C5.67 26.68 5.34 25.36 5 24 C3.948125 24.12375 3.948125 24.12375 2.875 24.25 C-0.96820976 23.91580785 -2.98476425 22.32995489 -6 20 C-6.33 19.34 -6.66 18.68 -7 18 C-5.68 18 -4.36 18 -3 18 C-5.21934164 14.67098753 -6.34683329 14.24976756 -10 13 C-10.75 9.75 -10.75 9.75 -11 6 C-8.13798308 2.07797681 -4.85399314 0 0 0 Z M-2 18 C-1.34 19.32 -0.68 20.64 0 22 C1.32 22 2.64 22 4 22 C3.67 21.01 3.34 20.02 3 19 C1.35 18.67 -0.3 18.34 -2 18 Z " fill="#01838F" transform="translate(126,153)"/>
<path d="M0 0 C0.87890625 6.15234375 0.87890625 6.15234375 1 8 C0 9 0 9 -1.84765625 9.09765625 C-3.8984375 9.06510417 -5.94921875 9.03255208 -8 9 C-8.66 10.32 -9.32 11.64 -10 13 C-12.97 13 -15.94 13 -19 13 C-17.13361647 7.79377225 -16.09545176 5.54772588 -11 3 C-10.3503125 2.1646875 -10.3503125 2.1646875 -9.6875 1.3125 C-6.79594484 -0.93648735 -3.55867489 -0.1750168 0 0 Z " fill="#00B8C5" transform="translate(193,171)"/>
<path d="M0 0 C-0.95712891 0.39832031 -0.95712891 0.39832031 -1.93359375 0.8046875 C-2.75988281 1.15789062 -3.58617187 1.51109375 -4.4375 1.875 C-5.26121094 2.22304687 -6.08492187 2.57109375 -6.93359375 2.9296875 C-9.15746715 3.8244937 -9.15746715 3.8244937 -10 6 C-12.32671865 7.01529541 -14.6603447 8.01488198 -17 9 C-17.66 9.66 -18.32 10.32 -19 11 C-19.99 11.28875 -20.98 11.5775 -22 11.875 C-25.00577417 12.70359271 -25.00577417 12.70359271 -26.3125 14.6875 C-27.22632641 17.76127974 -27.63297016 20.81907471 -28 24 C-28.7425 24.2475 -29.485 24.495 -30.25 24.75 C-33.09711205 25.82629253 -33.09711205 25.82629253 -34.9375 28.125 C-37 30 -37 30 -40.25 30.25 C-41.1575 30.1675 -42.065 30.085 -43 30 C-39.25 28 -39.25 28 -37 28 C-37 27.34 -37 26.68 -37 26 C-35.34997172 24.64613064 -33.6825613 23.31321858 -32 22 C-31.67 21.34 -31.34 20.68 -31 20 C-30.34 20 -29.68 20 -29 20 C-29.185625 19.0925 -29.37125 18.185 -29.5625 17.25 C-29.95734621 14.31685676 -29.94691572 12.7355343 -29 10 C-27.35 10 -25.7 10 -24 10 C-23.67 9.01 -23.34 8.02 -23 7 C-17.12064498 2.84986704 -7.22092579 -2.40697526 0 0 Z " fill="#058193" transform="translate(194,184)"/>
<path d="M0 0 C2.97 0.495 2.97 0.495 6 1 C6 1.66 6 2.32 6 3 C6.66 3 7.32 3 8 3 C8 3.66 8 4.32 8 5 C9.65 5 11.3 5 13 5 C13.99 7.97 14.98 10.94 16 14 C14.865625 13.814375 13.73125 13.62875 12.5625 13.4375 C11.386875 13.293125 10.21125 13.14875 9 13 C8.67 13.33 8.34 13.66 8 14 C5.69 14 3.38 14 1 14 C0.67 9.38 0.34 4.76 0 0 Z " fill="#00B4BF" transform="translate(170,138)"/>
<path d="M0 0 C2.76223278 2.76223278 2.57856291 5.20706617 3 9 C4.1446875 9.1546875 4.1446875 9.1546875 5.3125 9.3125 C8 10 8 10 9.34375 11.5 C11.58190403 13.52700742 13.21096069 13.49421823 16.1875 13.6875 C17.08855469 13.75324219 17.98960938 13.81898438 18.91796875 13.88671875 C19.60503906 13.92410156 20.29210937 13.96148437 21 14 C21 13.34 21 12.68 21 12 C24 11 24 11 27 12 C27.99 11.01 28.98 10.02 30 9 C30.33 10.65 30.66 12.3 31 14 C32.98 14 34.96 14 37 14 C37.495 17.465 37.495 17.465 38 21 C39.32 21 40.64 21 42 21 C42 21.99 42 22.98 42 24 C38.48928107 23.34986687 36.00042066 21.90270578 33 20 C32.0925 19.46375 31.185 18.9275 30.25 18.375 C28 17 28 17 27 16 C23.23278835 15.82996537 19.47188514 15.70263415 15.70117188 15.65820312 C9.54214312 15.44341137 9.54214312 15.44341137 6.59765625 13.03515625 C6.07042969 12.36355469 5.54320313 11.69195312 5 11 C2.36777038 9.74563813 2.36777038 9.74563813 0 9 C0 6.03 0 3.06 0 0 Z " fill="#01848A" transform="translate(77,166)"/>
<path d="M0 0 C0.66 0 1.32 0 2 0 C2.02505615 0.60062256 2.0501123 1.20124512 2.07592773 1.82006836 C2.1915528 4.52611437 2.31442936 7.23178283 2.4375 9.9375 C2.47681641 10.88302734 2.51613281 11.82855469 2.55664062 12.80273438 C2.59853516 13.70185547 2.64042969 14.60097656 2.68359375 15.52734375 C2.72025146 16.35999756 2.75690918 17.19265137 2.79467773 18.05053711 C2.79367103 20.00338858 2.79367103 20.00338858 4 21 C4.30467105 24.1156292 4.27829403 27.24629362 4.3125 30.375 C4.34150391 31.2515625 4.37050781 32.128125 4.40039062 33.03125 C4.46453048 39.48470639 4.46453048 39.48470639 2.10546875 42.1015625 C0 43 0 43 -2 43 C-2.66 44.32 -3.32 45.64 -4 47 C-4.33 45.68 -4.66 44.36 -5 43 C-3.35 42.01 -1.7 41.02 0 40 C-0.16749756 38.84048828 -0.33499512 37.68097656 -0.50756836 36.48632812 C-1.02090881 32.36147927 -1.02983749 28.37774422 -0.87890625 24.21875 C-0.85529526 23.51979614 -0.83168427 22.82084229 -0.80735779 22.10070801 C-0.7316769 19.9002142 -0.6472516 17.70016115 -0.5625 15.5 C-0.50918316 13.99481219 -0.4564437 12.4896038 -0.40429688 10.984375 C-0.27619434 7.32265537 -0.14025565 3.66127662 0 0 Z " fill="#0D747B" transform="translate(84,111)"/>
<path d="M0 0 C0.99 0.33 1.98 0.66 3 1 C3 10.9 3 20.8 3 31 C2.01 31 1.02 31 0 31 C-1.09282967 27.72151099 -1.1293042 25.28559684 -1.1328125 21.8359375 C-1.13410156 20.63195312 -1.13539063 19.42796875 -1.13671875 18.1875 C-1.13285156 16.929375 -1.12898437 15.67125 -1.125 14.375 C-1.12886719 13.10914063 -1.13273438 11.84328125 -1.13671875 10.5390625 C-1.13542969 9.33765625 -1.13414062 8.13625 -1.1328125 6.8984375 C-1.13168457 5.79161621 -1.13055664 4.68479492 -1.12939453 3.54443359 C-1 1 -1 1 0 0 Z " fill="#00CBD5" transform="translate(205,115)"/>
<path d="M0 0 C3.6875 -0.3125 3.6875 -0.3125 7 0 C7 1.98 7 3.96 7 6 C6.67 4.68 6.34 3.36 6 2 C4.02 2 2.04 2 0 2 C-0.020625 2.763125 -0.04125 3.52625 -0.0625 4.3125 C-0.371875 5.199375 -0.68125 6.08625 -1 7 C-4.375 8.625 -4.375 8.625 -8 10 C-9.02104551 10.97850195 -10.0206121 11.97980427 -11 13 C-13.9945966 14.96451423 -16.8743502 16.73339873 -20.375 17.5625 C-20.91125 17.706875 -21.4475 17.85125 -22 18 C-22.33 18.99 -22.66 19.98 -23 21 C-23.66 21 -24.32 21 -25 21 C-25.375 18.75 -25.375 18.75 -25 16 C-22.125 13.875 -22.125 13.875 -19 12 C-18.34 11.01 -17.68 10.02 -17 9 C-13.4501757 7.81672523 -9.90608857 6.97965252 -6.25 6.1875 C-2.81283216 5.32777709 -2.81283216 5.32777709 -1.5 2.375 C-1.005 1.59125 -0.51 0.8075 0 0 Z " fill="#00C8D1" transform="translate(131,67)"/>
<path d="M0 0 C0 1.98 0 3.96 0 6 C1.32 6.33 2.64 6.66 4 7 C4 7.99 4 8.98 4 10 C5.65 10.33 7.3 10.66 9 11 C9 13.31 9 15.62 9 18 C8.34 18 7.68 18 7 18 C6.67 16.68 6.34 15.36 6 14 C4.865625 13.731875 3.73125 13.46375 2.5625 13.1875 C0.7990625 12.5996875 0.7990625 12.5996875 -1 12 C-1.33 11.01 -1.66 10.02 -2 9 C-4.97 8.505 -4.97 8.505 -8 8 C-8 5.69 -8 3.38 -8 1 C-5.23735711 0.40267181 -2.83967231 0 0 0 Z " fill="#00E2EB" transform="translate(171,68)"/>
<path d="M0 0 C0.99 0.33 1.98 0.66 3 1 C3 6.28 3 11.56 3 17 C5.97 17 8.94 17 12 17 C12 18.32 12 19.64 12 21 C9.03 21 6.06 21 3 21 C3.66 20.67 4.32 20.34 5 20 C5 19.34 5 18.68 5 18 C4.05125 17.87625 3.1025 17.7525 2.125 17.625 C-1 17 -1 17 -3 15 C-2.9765625 12.3984375 -2.9765625 12.3984375 -2.625 9.375 C-2.51414063 8.37210938 -2.40328125 7.36921875 -2.2890625 6.3359375 C-2.19367188 5.56507813 -2.09828125 4.79421875 -2 4 C-1.34 4 -0.68 4 0 4 C0 2.68 0 1.36 0 0 Z " fill="#03959E" transform="translate(168,135)"/>
<path d="M0 0 C2 3 2 3 2 5 C3.65 4.67 5.3 4.34 7 4 C8.26237731 6.52475462 8.09856404 8.31200466 8.0625 11.125 C8.05347656 12.03507813 8.04445312 12.94515625 8.03515625 13.8828125 C8.02355469 14.58148438 8.01195312 15.28015625 8 16 C8.66 16 9.32 16 10 16 C10 16.99 10 17.98 10 19 C10.99 19 11.98 19 13 19 C13.66 19.99 14.32 20.98 15 22 C18.55672179 23.2188121 18.55672179 23.2188121 22 24 C22 24.33 22 24.66 22 25 C18.75 25.25 18.75 25.25 15 25 C12.875 23.125 12.875 23.125 11 21 C8.36777038 19.74563813 8.36777038 19.74563813 6 19 C5.96261719 18.38511719 5.92523438 17.77023438 5.88671875 17.13671875 C5.78810547 15.92435547 5.78810547 15.92435547 5.6875 14.6875 C5.62949219 13.88699219 5.57148438 13.08648437 5.51171875 12.26171875 C4.90512609 9.58067178 4.15878094 8.66138961 2 7 C1.01 6.690625 0.02 6.38125 -1 6.0625 C-4.2894218 4.89749645 -5.23920843 3.93465261 -7 1 C-3.535 0.505 -3.535 0.505 0 0 Z " fill="#047585" transform="translate(127,189)"/>
<path d="M0 0 C1.65 0 3.3 0 5 0 C5.19335938 0.61488281 5.38671875 1.22976562 5.5859375 1.86328125 C5.84632813 2.67152344 6.10671875 3.47976562 6.375 4.3125 C6.63023437 5.11300781 6.88546875 5.91351563 7.1484375 6.73828125 C7.98831811 9.22724528 7.98831811 9.22724528 10 12 C10.34541851 14.33157492 10.67794257 16.66508361 11 19 C11.391875 19.886875 11.78375 20.77375 12.1875 21.6875 C13 24 13 24 12.125 26.3125 C11.75375 26.869375 11.3825 27.42625 11 28 C11 26.68 11 25.36 11 24 C10.34 24 9.68 24 9 24 C8.67 22.35 8.34 20.7 8 19 C7.01 18.67 6.02 18.34 5 18 C4.95101562 17.34773438 4.90203125 16.69546875 4.8515625 16.0234375 C4.32801226 7.27454667 4.32801226 7.27454667 0 0 Z " fill="#00747F" transform="translate(126,133)"/>
<path d="M0 0 C4.22426533 1.09248241 5.84456366 2.65152978 8.625 5.9375 C6.75 6.5625 6.75 6.5625 4.625 6.9375 C3.965 6.2775 3.305 5.6175 2.625 4.9375 C2.625 3.9475 2.625 2.9575 2.625 1.9375 C-1.10114153 3.05604586 -1.10114153 3.05604586 -3.375 5.9375 C-3.414992 7.93710012 -3.41846799 9.93797242 -3.375 11.9375 C-2.385 11.9375 -1.395 11.9375 -0.375 11.9375 C6.41223404 14.51196809 6.41223404 14.51196809 7.625 16.9375 C6.965 17.9275 6.305 18.9175 5.625 19.9375 C5.625 18.9475 5.625 17.9575 5.625 16.9375 C4.965 16.9375 4.305 16.9375 3.625 16.9375 C3.625 16.2775 3.625 15.6175 3.625 14.9375 C2.34625 14.875625 1.0675 14.81375 -0.25 14.75 C-0.96929687 14.71519531 -1.68859375 14.68039063 -2.4296875 14.64453125 C-3.39261719 14.78955078 -3.39261719 14.78955078 -4.375 14.9375 C-5.035 15.9275 -5.695 16.9175 -6.375 17.9375 C-6.45574203 15.31188891 -6.5153623 12.68874324 -6.5625 10.0625 C-6.58763672 9.31613281 -6.61277344 8.56976563 -6.63867188 7.80078125 C-6.66796875 5.6328125 -6.66796875 5.6328125 -6.375 1.9375 C-3.375 -0.0625 -3.375 -0.0625 0 0 Z " fill="#01C5CA" transform="translate(167.375,86.0625)"/>
<path d="M0 0 C0.33 0 0.66 0 1 0 C2.27786205 7.80803895 2.11158147 15.61362681 2.0625 23.5 C2.05747533 24.90885258 2.05291413 26.31770689 2.04882812 27.7265625 C2.0371003 31.15108638 2.02068691 34.57552047 2 38 C0.02 37.67 -1.96 37.34 -4 37 C-3.67 35.68 -3.34 34.36 -3 33 C-2.34 33.33 -1.68 33.66 -1 34 C-1 34.66 -1 35.32 -1 36 C-0.34 36 0.32 36 1 36 C0.835 35.505 0.67 35.01 0.5 34.5 C-0.20688818 30.96555911 -0.06005155 27.60309299 0 24 C-0.33 24 -0.66 24 -1 24 C-0.98839844 22.80761719 -0.97679687 21.61523438 -0.96484375 20.38671875 C-0.95546408 18.82031406 -0.94636407 17.25390769 -0.9375 15.6875 C-0.92912109 14.90181641 -0.92074219 14.11613281 -0.91210938 13.30664062 C-0.90727539 12.1706543 -0.90727539 12.1706543 -0.90234375 11.01171875 C-0.89448853 9.96697388 -0.89448853 9.96697388 -0.88647461 8.90112305 C-0.93104009 6.77502032 -0.93104009 6.77502032 -2 4 C-1.0625 1.8125 -1.0625 1.8125 0 0 Z " fill="#1C3F46" transform="translate(197,114)"/>
<path d="M0 0 C1.98 0.66 3.96 1.32 6 2 C6 2.66 6 3.32 6 4 C7.258125 4.268125 8.51625 4.53625 9.8125 4.8125 C13.16552249 5.64047928 14.65976594 6.44701739 17 9 C20.10007201 10.20049407 20.10007201 10.20049407 23 11 C23 11.66 23 12.32 23 13 C20.21136993 14.39431504 18.07921132 14.25660094 15 14 C14.34 13.01 13.68 12.02 13 11 C12.34 10.835 11.68 10.67 11 10.5 C9 10 9 10 7 7 C5.62485459 5.2912354 5.62485459 5.2912354 4 4 C3.01 4 2.02 4 1 4 C0.67 2.68 0.34 1.36 0 0 Z " fill="#01B9BF" transform="translate(172,67)"/>
<path d="M0 0 C0.99 0 1.98 0 3 0 C3 9.24 3 18.48 3 28 C2.34 28.33 1.68 28.66 1 29 C-0.38308781 26.23382437 -0.11210196 23.98982 -0.09765625 20.8984375 C-0.09443359 19.68671875 -0.09121094 18.475 -0.08789062 17.2265625 C-0.07951172 15.95554688 -0.07113281 14.68453125 -0.0625 13.375 C-0.05798828 12.09625 -0.05347656 10.8175 -0.04882812 9.5 C-0.03701203 6.33328708 -0.02053815 3.16666644 0 0 Z " fill="#00B7C3" transform="translate(92,116)"/>
<path d="M0 0 C0.66 0 1.32 0 2 0 C2.55353075 14.78132118 2.55353075 14.78132118 -1 21 C-2.65 20.67 -4.3 20.34 -6 20 C-6 19.34 -6 18.68 -6 18 C-7.32 17.67 -8.64 17.34 -10 17 C-7.36 17 -4.72 17 -2 17 C-1.83125293 15.08351538 -1.66508357 13.16680367 -1.5 11.25 C-1.36078125 9.64898437 -1.36078125 9.64898437 -1.21875 8.015625 C-1.04947717 5.6820782 -1 3.33967818 -1 1 C-0.67 0.67 -0.34 0.34 0 0 Z " fill="#019FA4" transform="translate(182,121)"/>
<path d="M0 0 C0.66 0.33 1.32 0.66 2 1 C2.4140625 3.50390625 2.4140625 3.50390625 2.625 6.5625 C2.69976562 7.57441406 2.77453125 8.58632812 2.8515625 9.62890625 C2.90054688 10.41136719 2.94953125 11.19382813 3 12 C2.25234375 12.19335938 1.5046875 12.38671875 0.734375 12.5859375 C-0.25046875 12.84632813 -1.2353125 13.10671875 -2.25 13.375 C-3.71179688 13.75785156 -3.71179688 13.75785156 -5.203125 14.1484375 C-7.68905121 14.90532565 -9.79327436 15.63584233 -12 17 C-13.28254644 19.53770003 -13.28254644 19.53770003 -14 22 C-15.65 22 -17.3 22 -19 22 C-18.34 21.67 -17.68 21.34 -17 21 C-16.87625 20.38125 -16.7525 19.7625 -16.625 19.125 C-15.79230249 16.29382846 -14.4793285 15.50262333 -12 14 C-11.34 14 -10.68 14 -10 14 C-10 13.34 -10 12.68 -10 12 C-7.69 12 -5.38 12 -3 12 C-0.60926555 8.17482487 -0.44033448 4.40334476 0 0 Z " fill="#029AA4" transform="translate(129,140)"/>
<path d="M0 0 C2.31 0 4.62 0 7 0 C7 1.65 7 3.3 7 5 C6.09636719 5.13277344 5.19273437 5.26554687 4.26171875 5.40234375 C2.49248047 5.66724609 2.49248047 5.66724609 0.6875 5.9375 C-1.07013672 6.19853516 -1.07013672 6.19853516 -2.86328125 6.46484375 C-6.01641403 6.92093031 -6.01641403 6.92093031 -9 8 C-8.375 6.0625 -8.375 6.0625 -7 4 C-3.875 3.25 -3.875 3.25 -1 3 C-0.67 2.01 -0.34 1.02 0 0 Z M-9 8 C-9 8.66 -9 9.32 -9 10 C-11.64 10 -14.28 10 -17 10 C-17.33 10.99 -17.66 11.98 -18 13 C-18 11.68 -18 10.36 -18 9 C-15.04335481 7.5216774 -12.25770263 7.93967217 -9 8 Z " fill="#01BCC4" transform="translate(132,77)"/>
<path d="M0 0 C0.66 0 1.32 0 2 0 C2 1.98 2 3.96 2 6 C0.35 6.33 -1.3 6.66 -3 7 C-3 8.98 -3 10.96 -3 13 C-4.32 12.67 -5.64 12.34 -7 12 C-7 11.34 -7 10.68 -7 10 C-7.99 10 -8.98 10 -10 10 C-10 8.35 -10 6.7 -10 5 C-7.03 5 -4.06 5 -1 5 C-0.67 3.35 -0.34 1.7 0 0 Z " fill="#00BECA" transform="translate(173,158)"/>
<path d="M0 0 C0.99 0 1.98 0 3 0 C3 1.65 3 3.3 3 5 C2.05125 5.45375 1.1025 5.9075 0.125 6.375 C-3.00313679 7.80238254 -3.00313679 7.80238254 -5 10 C-7.32275177 10.40047444 -9.65739357 10.7397104 -12 11 C-11.5625 8.6875 -11.5625 8.6875 -10 6 C-7.69371347 5.01832785 -5.42867846 4.37282637 -2.99609375 3.7734375 C-2.33738281 3.51820312 -1.67867187 3.26296875 -1 3 C-0.67 2.01 -0.34 1.02 0 0 Z " fill="#00D6E0" transform="translate(133,70)"/>
<path d="M0 0 C0.0825 0.61875 0.165 1.2375 0.25 1.875 C0.81258459 4.18437567 0.81258459 4.18437567 3.0625 5.25 C3.701875 5.4975 4.34125 5.745 5 6 C5 6.66 5 7.32 5 8 C5.66 8.33 6.32 8.66 7 9 C5.875 10.5625 5.875 10.5625 4 12 C0.8125 11.6875 0.8125 11.6875 -2 11 C-2 10.67 -2 10.34 -2 10 C-0.02 10 1.96 10 4 10 C3.67 9.01 3.34 8.02 3 7 C1.35 7 -0.3 7 -2 7 C-2.33 7.99 -2.66 8.98 -3 10 C-3.99 10.33 -4.98 10.66 -6 11 C-6 7.7 -6 4.4 -6 1 C-4 0 -4 0 0 0 Z " fill="#037A83" transform="translate(186,156)"/>
<path d="M0 0 C2.31 0 4.62 0 7 0 C7 0.66 7 1.32 7 2 C7.66 2 8.32 2 9 2 C9.125 7.75 9.125 7.75 8 10 C5.69 10 3.38 10 1 10 C1.66 7.03 2.32 4.06 3 1 C2.01 1.33 1.02 1.66 0 2 C0 1.34 0 0.68 0 0 Z " fill="#01B8C3" transform="translate(172,157)"/>
<path d="M0 0 C0.309375 0.928125 0.309375 0.928125 0.625 1.875 C1.89068641 4.31985677 1.89068641 4.31985677 5.0625 5 C6.5165625 5.495 6.5165625 5.495 8 6 C8.875 8.125 8.875 8.125 9 10 C7.02 10.33 5.04 10.66 3 11 C2.71125 10.195625 2.4225 9.39125 2.125 8.5625 C1.26737432 5.8673532 1.26737432 5.8673532 -1 5 C-1.33 5.66 -1.66 6.32 -2 7 C-5 5 -5 5 -5.6875 2.875 C-5.790625 2.25625 -5.89375 1.6375 -6 1 C-4.02 0.67 -2.04 0.34 0 0 Z " fill="#009B9F" transform="translate(174,82)"/>
<path d="M0 0 C0.33 0.99 0.66 1.98 1 3 C2.65 3.33 4.3 3.66 6 4 C6.33 4.99 6.66 5.98 7 7 C8.299375 6.87625 9.59875 6.7525 10.9375 6.625 C11.66839844 6.55539063 12.39929688 6.48578125 13.15234375 6.4140625 C14.06693359 6.20910156 14.06693359 6.20910156 15 6 C15.33 5.34 15.66 4.68 16 4 C17.1875 6.1875 17.1875 6.1875 18 9 C16.6875 11.8125 16.6875 11.8125 15 14 C14.67 14 14.34 14 14 14 C14 12.02 14 10.04 14 8 C9.545 8.495 9.545 8.495 5 9 C4.67 7.68 4.34 6.36 4 5 C2.68 4.67 1.36 4.34 0 4 C0 2.68 0 1.36 0 0 Z " fill="#01CED6" transform="translate(180,74)"/>
<path d="M0 0 C0.66 0 1.32 0 2 0 C2 0.66 2 1.32 2 2 C3.65 1.67 5.3 1.34 7 1 C5.6026824 3.7946352 3.70078818 4.39101981 1 6 C-0.33950467 7.03371875 -1.67243204 8.07599545 -3 9.125 C-5.96063685 11.39033577 -8.17508784 12.76094299 -12 13 C-12 11 -12 11 -10.125 9 C-9.42375 8.34 -8.7225 7.68 -8 7 C-7.34 6.34 -6.68 5.68 -6 5 C-5.34 5.33 -4.68 5.66 -4 6 C-3.01 5.67 -2.02 5.34 -1 5 C-0.67 3.35 -0.34 1.7 0 0 Z " fill="#057278" transform="translate(175,169)"/>
<path d="M0 0 C0.35707031 0.47050781 0.71414062 0.94101563 1.08203125 1.42578125 C3.8010231 3.65745888 6.22955674 3.74241819 9.6875 4.1875 C10.86699219 4.34605469 12.04648438 4.50460938 13.26171875 4.66796875 C14.16535156 4.77753906 15.06898438 4.88710937 16 5 C16 5.33 16 5.66 16 6 C14.46279297 6.07347656 14.46279297 6.07347656 12.89453125 6.1484375 C11.5338294 6.22351071 10.17315356 6.29905655 8.8125 6.375 C8.13896484 6.4059375 7.46542969 6.436875 6.77148438 6.46875 C2.77378227 6.70276183 -0.35282157 7.38482098 -4 9 C-6.8125 9.125 -6.8125 9.125 -9 9 C-7.875 7.5 -7.875 7.5 -6 6 C-2.8125 5.8125 -2.8125 5.8125 0 6 C0 4.02 0 2.04 0 0 Z " fill="#0292A1" transform="translate(195,175)"/>
<path d="M0 0 C1.2065625 0.0309375 1.2065625 0.0309375 2.4375 0.0625 C3.4375 3.0625 3.4375 3.0625 2.5 5.25 C1.9740625 6.1471875 1.9740625 6.1471875 1.4375 7.0625 C0.7775 7.0625 0.1175 7.0625 -0.5625 7.0625 C-0.5625 7.7225 -0.5625 8.3825 -0.5625 9.0625 C-1.8825 8.7325 -3.2025 8.4025 -4.5625 8.0625 C-3.54737544 0.08652135 -3.54737544 0.08652135 0 0 Z " fill="#0194A2" transform="translate(124.5625,156.9375)"/>
<path d="M0 0 C0.99 0.33 1.98 0.66 3 1 C1.68 3.31 0.36 5.62 -1 8 C0.175625 7.01 0.175625 7.01 1.375 6 C4 4 4 4 6 4 C6 5.32 6 6.64 6 8 C4.865625 8.391875 3.73125 8.78375 2.5625 9.1875 C-1.20339051 10.58610882 -1.20339051 10.58610882 -1.9375 13.6875 C-1.958125 14.450625 -1.97875 15.21375 -2 16 C-2.99 15.67 -3.98 15.34 -5 15 C-4.11223998 11.30099992 -3.05418136 7.65449539 -2 4 C-1.34 4 -0.68 4 0 4 C0 2.68 0 1.36 0 0 Z " fill="#018994" transform="translate(163,152)"/>
<path d="M0 0 C0.66 0.33 1.32 0.66 2 1 C2.36275695 5.47400242 2.36275695 5.47400242 0.75 7.8125 C-1 9 -1 9 -5 9 C-5 6.69 -5 4.38 -5 2 C-2.625 0.9375 -2.625 0.9375 0 0 Z " fill="#009AA8" transform="translate(135,162)"/>
<path d="M0 0 C2.475 0.99 2.475 0.99 5 2 C3 3 3 3 0 4 C0.66 4.66 1.32 5.32 2 6 C1.01 6.66 0.02 7.32 -1 8 C-2.07136051 10.30144109 -3.07989717 12.6340213 -4 15 C-4.33 15 -4.66 15 -5 15 C-5.28783441 11.29013428 -5.45251957 7.70001295 -5 4 C-2.5 1.3125 -2.5 1.3125 0 0 Z " fill="#049FA2" transform="translate(163,80)"/>
<path d="M0 0 C0.99 0 1.98 0 3 0 C3 0.66 3 1.32 3 2 C7.455 2.99 7.455 2.99 12 4 C12.33 5.32 12.66 6.64 13 8 C11.02 8 9.04 8 7 8 C6.67 6.68 6.34 5.36 6 4 C3.36 4.33 0.72 4.66 -2 5 C-1.34 3.35 -0.68 1.7 0 0 Z " fill="#056A73" transform="translate(123,153)"/>
<path d="M0 0 C0.33 0 0.66 0 1 0 C1.33 2.31 1.66 4.62 2 7 C3.32 7 4.64 7 6 7 C6 7.99 6 8.98 6 10 C2.48928107 9.34986687 0.00042066 7.90270578 -3 6 C-3.928125 5.46375 -4.85625 4.9275 -5.8125 4.375 C-6.534375 3.92125 -7.25625 3.4675 -8 3 C-8 2.67 -8 2.34 -8 2 C-6.865625 1.855625 -5.73125 1.71125 -4.5625 1.5625 C-1.19222799 1.38828522 -1.19222799 1.38828522 0 0 Z " fill="#0D6876" transform="translate(113,180)"/>
<path d="M0 0 C0.33 0.99 0.66 1.98 1 3 C0.01 3 -0.98 3 -2 3 C-1.34 2.01 -0.68 1.02 0 0 Z M-3 4 C-2.34 4.33 -1.68 4.66 -1 5 C-1 5.66 -1 6.32 -1 7 C0.32 6.01 1.64 5.02 3 4 C3 5.65 3 7.3 3 9 C-2.94 9.495 -2.94 9.495 -9 10 C-9 9.01 -9 8.02 -9 7 C-8.195625 6.690625 -7.39125 6.38125 -6.5625 6.0625 C-4.10919595 5.23664655 -4.10919595 5.23664655 -3 4 Z " fill="#00C8D2" transform="translate(188,106)"/>
<path d="M0 0 C0.99 0 1.98 0 3 0 C3.06058594 1.10859375 3.12117188 2.2171875 3.18359375 3.359375 C3.26802951 4.8229282 3.35267599 6.28646925 3.4375 7.75 C3.47681641 8.47960937 3.51613281 9.20921875 3.55664062 9.9609375 C3.76147098 13.4272973 4.0852002 16.65333026 5 20 C4.01 20 3.02 20 2 20 C0.88176185 17.76352369 0.80603939 16.35108471 0.68359375 13.8671875 C0.62075195 12.65869141 0.62075195 12.65869141 0.55664062 11.42578125 C0.51732422 10.58402344 0.47800781 9.74226562 0.4375 8.875 C0.39431641 8.02550781 0.35113281 7.17601562 0.30664062 6.30078125 C0.20045764 4.20071777 0.09971503 2.10038052 0 0 Z " fill="#037B7E" transform="translate(116,121)"/>
<path d="M0 0 C1.65 0 3.3 0 5 0 C5.185625 0.61875 5.37125 1.2375 5.5625 1.875 C7.71437233 5.05602866 10.37533763 5.19451947 14 6 C14 7.32 14 8.64 14 10 C15.65 9.67 17.3 9.34 19 9 C18.67 9.66 18.34 10.32 18 11 C16.02 11 14.04 11 12 11 C11.773125 10.38125 11.54625 9.7625 11.3125 9.125 C10.14688017 6.76128418 10.14688017 6.76128418 7.4375 6 C6.633125 5.67 5.82875 5.34 5 5 C4.1875 2.875 4.1875 2.875 4 1 C2.68 0.67 1.36 0.34 0 0 Z " fill="#00D1D9" transform="translate(164,76)"/>
<path d="M0 0 C4.37381963 -0.42880585 6.34825296 -0.48534354 9.9375 2.1875 C12.14663138 5.19995189 12.51818998 6.37267012 12 10 C10 7 10 7 10 4 C6.37 4 2.74 4 -1 4 C-0.67 2.68 -0.34 1.36 0 0 Z " fill="#029DA7" transform="translate(183,167)"/>
<path d="M0 0 C1.65 0 3.3 0 5 0 C8.25968109 9.41002278 8.25968109 9.41002278 9 14 C8.34 14 7.68 14 7 14 C4.49419186 9.87754145 2.81938361 6.77973773 2 2 C1.34 1.34 0.68 0.68 0 0 Z " fill="#025F66" transform="translate(126,133)"/>
<path d="M0 0 C3.25 -0.375 3.25 -0.375 7 0 C11 4.71794872 11 4.71794872 11 8 C9.68 8 8.36 8 7 8 C7 7.34 7 6.68 7 6 C6.01 6 5.02 6 4 6 C3.67 4.35 3.34 2.7 3 1 C2.01 0.67 1.02 0.34 0 0 Z " fill="#01767E" transform="translate(102,110)"/>
<path d="M0 0 C1.98 0 3.96 0 6 0 C6.125 3.375 6.125 3.375 6 7 C4 9 4 9 0.375 9.125 C-0.73875 9.08375 -1.8525 9.0425 -3 9 C-3 7.35 -3 5.7 -3 4 C-2.67 5.32 -2.34 6.64 -2 8 C0.50965614 7.29660434 0.50965614 7.29660434 3 6 C3.88693303 3.95894361 3.88693303 3.95894361 4 2 C2.35 2 0.7 2 -1 2 C-0.67 1.34 -0.34 0.68 0 0 Z " fill="#00D6DE" transform="translate(188,82)"/>
<path d="M0 0 C2.57343171 1.07918104 4.66603411 2.44402274 7 4 C0.25 8 0.25 8 -2 8 C-2 5.69 -2 3.38 -2 1 C-1.34 0.67 -0.68 0.34 0 0 Z " fill="#019BA5" transform="translate(172,164)"/>
<path d="M0 0 C0.33 0 0.66 0 1 0 C1 1.98 1 3.96 1 6 C1.66 6 2.32 6 3 6 C3 5.34 3 4.68 3 4 C7.455 3.505 7.455 3.505 12 3 C11.01 3.99 10.02 4.98 9 6 C8.34 6 7.68 6 7 6 C5.62689293 7.29233607 4.28965176 8.62437146 3 10 C2.01 9.34 1.02 8.68 0 8 C-0.40843923 5.28796348 -0.13336867 2.7562858 0 0 Z " fill="#01C3C9" transform="translate(180,96)"/>
<path d="M0 0 C2.64 0.33 5.28 0.66 8 1 C7.67 2.65 7.34 4.3 7 6 C5.35 6.33 3.7 6.66 2 7 C1.34 4.69 0.68 2.38 0 0 Z " fill="#00E7F0" transform="translate(184,83)"/>
<path d="M0 0 C0.33 0.66 0.66 1.32 1 2 C-0.24687592 2.96239452 -1.49764969 3.91974009 -2.75 4.875 C-3.44609375 5.40867187 -4.1421875 5.94234375 -4.859375 6.4921875 C-7 8 -7 8 -9.140625 9.0078125 C-11.33532461 9.99064118 -11.33532461 9.99064118 -13 13 C-13.375 10.75 -13.375 10.75 -13 8 C-10.125 5.875 -10.125 5.875 -7 4 C-6.34 3.01 -5.68 2.02 -5 1 C-2.375 0.3125 -2.375 0.3125 0 0 Z " fill="#01BBC5" transform="translate(119,75)"/>
<path d="M0 0 C0.99 0.33 1.98 0.66 3 1 C3 2.32 3 3.64 3 5 C4.32 5.33 5.64 5.66 7 6 C7 7.65 7 9.3 7 11 C6.34 11 5.68 11 5 11 C5 10.01 5 9.02 5 8 C3.68 8 2.36 8 1 8 C-0.35439668 5.29120665 -0.06501451 2.99066732 0 0 Z " fill="#028695" transform="translate(114,179)"/>
<path d="M0 0 C0.99 0 1.98 0 3 0 C3 1.32 3 2.64 3 4 C3.99 4.33 4.98 4.66 6 5 C6 5.66 6 6.32 6 7 C3.69 7.33 1.38 7.66 -1 8 C-2.2077558 4.37673261 -1.54311128 3.35853631 0 0 Z " fill="#0296A6" transform="translate(108,173)"/>
<path d="M0 0 C1.65 0 3.3 0 5 0 C5.66 1.65 6.32 3.3 7 5 C5.68 4.67 4.36 4.34 3 4 C3.66 5.32 4.32 6.64 5 8 C1.89448334 8 0.64738916 7.4606285 -2 6 C-2 5.34 -2 4.68 -2 4 C-0.68 4 0.64 4 2 4 C1.34 2.68 0.68 1.36 0 0 Z " fill="#036D75" transform="translate(121,167)"/>
<path d="M0 0 C0 2.64 0 5.28 0 8 C-0.99 8.33 -1.98 8.66 -3 9 C-3 7.68 -3 6.36 -3 5 C-4.65 5 -6.3 5 -8 5 C-5.54299754 1.19164619 -5.54299754 1.19164619 -2.875 0.25 C-1 0 -1 0 0 0 Z " fill="#049798" transform="translate(143,81)"/>
<path d="M0 0 C0.66 0.33 1.32 0.66 2 1 C2.44921875 2.8125 2.44921875 2.8125 2.6875 5 C2.77386719 5.721875 2.86023438 6.44375 2.94921875 7.1875 C2.97435547 8.0846875 2.97435547 8.0846875 3 9 C2 10 2 10 -1.0625 10.0625 C-2.031875 10.041875 -3.00125 10.02125 -4 10 C-4 8.35 -4 6.7 -4 5 C-3.34 5.66 -2.68 6.32 -2 7 C-0.5393715 4.35261084 0 3.10551666 0 0 Z " fill="#0B6E78" transform="translate(105,142)"/>
<path d="M0 0 C0.66 0 1.32 0 2 0 C1.67 2.64 1.34 5.28 1 8 C1.99 8.33 2.98 8.66 4 9 C4.33 10.65 4.66 12.3 5 14 C4.01 14.495 4.01 14.495 3 15 C2.67 13.68 2.34 12.36 2 11 C0.68 10.67 -0.64 10.34 -2 10 C-1.67 9.01 -1.34 8.02 -1 7 C-0.64456573 4.66993089 -0.3086247 2.33672984 0 0 Z " fill="#086C78" transform="translate(139,165)"/>
<path d="M0 0 C-0.33 0.99 -0.66 1.98 -1 3 C-1.598125 3.144375 -2.19625 3.28875 -2.8125 3.4375 C-5.19670396 3.83714968 -5.19670396 3.83714968 -6.875 6.0625 C-9 8 -9 8 -12.25 8.25 C-13.1575 8.1675 -14.065 8.085 -15 8 C-11.25 6 -11.25 6 -9 6 C-9 5.34 -9 4.68 -9 4 C-5.69649386 0.88002198 -4.67590167 0 0 0 Z " fill="#028C89" transform="translate(166,206)"/>
<path d="M0 0 C1.98 0 3.96 0 6 0 C5.01 1.3303125 5.01 1.3303125 4 2.6875 C2.01139933 5.98111986 1.56264926 7.28251873 2 11 C0.68 11 -0.64 11 -2 11 C-2 10.34 -2 9.68 -2 9 C-1.34 9 -0.68 9 0 9 C-0.185625 8.071875 -0.37125 7.14375 -0.5625 6.1875 C-1 3 -1 3 0 0 Z " fill="#077280" transform="translate(165,195)"/>
<path d="M0 0 C0.99 0.33 1.98 0.66 3 1 C3.33 2.65 3.66 4.3 4 6 C5.98 6.66 7.96 7.32 10 8 C10 8.33 10 8.66 10 9 C7.69 9 5.38 9 3 9 C2.67 7.68 2.34 6.36 2 5 C0.35 5 -1.3 5 -3 5 C-3 4.34 -3 3.68 -3 3 C-1.68 3 -0.36 3 1 3 C0.67 2.01 0.34 1.02 0 0 Z " fill="#08626D" transform="translate(129,172)"/>
<path d="M0 0 C0.33 0.99 0.66 1.98 1 3 C0.70351562 3.54140625 0.40703125 4.0828125 0.1015625 4.640625 C-1.57379221 8.22897338 -1.4691129 11.83333649 -1.625 15.75 C-1.66367188 16.54277344 -1.70234375 17.33554688 -1.7421875 18.15234375 C-1.836108 20.10119416 -1.91912822 22.05056451 -2 24 C-2.33 24 -2.66 24 -3 24 C-3.08728882 20.75017 -3.14048658 17.5006425 -3.1875 14.25 C-3.21263672 13.32960937 -3.23777344 12.40921875 -3.26367188 11.4609375 C-3.27333984 10.57148438 -3.28300781 9.68203125 -3.29296875 8.765625 C-3.3086792 7.94868164 -3.32438965 7.13173828 -3.34057617 6.29003906 C-2.92379459 3.48759373 -1.83804852 2.11152979 0 0 Z " fill="#009AA6" transform="translate(151,155)"/>
<path d="M0 0 C0.33 0 0.66 0 1 0 C1.33 3.96 1.66 7.92 2 12 C2.99 12 3.98 12 5 12 C5 11.01 5 10.02 5 9 C6.32 9.33 7.64 9.66 9 10 C6.75 12.0625 6.75 12.0625 4 14 C2.68 13.67 1.36 13.34 0 13 C0 8.71 0 4.42 0 0 Z " fill="#02969F" transform="translate(116,129)"/>
<path d="M0 0 C0.66 0 1.32 0 2 0 C2 3.63 2 7.26 2 11 C0.68 10.34 -0.64 9.68 -2 9 C-1.34 6.03 -0.68 3.06 0 0 Z " fill="#007585" transform="translate(167,141)"/>
<path d="M0 0 C-0.63808594 0.26554688 -1.27617187 0.53109375 -1.93359375 0.8046875 C-2.75988281 1.15789062 -3.58617187 1.51109375 -4.4375 1.875 C-5.26121094 2.22304687 -6.08492187 2.57109375 -6.93359375 2.9296875 C-9.15746715 3.8244937 -9.15746715 3.8244937 -10 6 C-10.99 6 -11.98 6 -13 6 C-12.5 3.625 -12.5 3.625 -11 1 C-7.13237916 -0.73750569 -4.03888274 -1.34629425 0 0 Z " fill="#076C79" transform="translate(194,184)"/>
<path d="M0 0 C0.99 0.495 0.99 0.495 2 1 C2 1.33 2 1.66 2 2 C3.670625 2.37125 3.670625 2.37125 5.375 2.75 C9 4 9 4 10.4375 6.125 C10.7159375 7.053125 10.7159375 7.053125 11 8 C9.35 8 7.7 8 6 8 C5.67 7.01 5.34 6.02 5 5 C2.98491642 4.26676204 2.98491642 4.26676204 1 4 C0.67 2.68 0.34 1.36 0 0 Z " fill="#02757E" transform="translate(108,163)"/>
<path d="M0 0 C0.99 0 1.98 0 3 0 C3.33 2.97 3.66 5.94 4 9 C2.68 8.67 1.36 8.34 0 8 C-0.38063221 5.6739143 -0.71269945 3.33944736 -1 1 C-0.67 0.67 -0.34 0.34 0 0 Z " fill="#035A62" transform="translate(116,158)"/>
<path d="M0 0 C2.97 0 5.94 0 9 0 C9 0.99 9 1.98 9 3 C10.32 3.66 11.64 4.32 13 5 C11.35 5.33 9.7 5.66 8 6 C7.34 4.35 6.68 2.7 6 1 C4.02 1 2.04 1 0 1 C0 0.67 0 0.34 0 0 Z " fill="#009EAA" transform="translate(103,109)"/>
<path d="M0 0 C0.144375 0.639375 0.28875 1.27875 0.4375 1.9375 C0.81007181 3.97545146 0.81007181 3.97545146 2 5 C3.66617115 5.04063832 5.33388095 5.042721 7 5 C6.67 5.66 6.34 6.32 6 7 C3.36 7 0.72 7 -2 7 C-2 3 -2 3 0 0 Z " fill="#088397" transform="translate(106,175)"/>
<path d="M0 0 C0.99 0 1.98 0 3 0 C3.28571429 8.57142857 3.28571429 8.57142857 1 12 C-0.3271261 8.0186217 -0.06915913 4.14954773 0 0 Z " fill="#00C5D0" transform="translate(92,116)"/>
<path d="M0 0 C1.32 0 2.64 0 4 0 C3.814375 0.721875 3.62875 1.44375 3.4375 2.1875 C2.98004693 5.12826973 3.26483643 7.14103058 4 10 C3.67 9.01 3.34 8.02 3 7 C1.68 7 0.36 7 -1 7 C-0.67 4.69 -0.34 2.38 0 0 Z " fill="#00838E" transform="translate(191,110)"/>
<path d="M0 0 C2.31 0.33 4.62 0.66 7 1 C7.33 2.32 7.66 3.64 8 5 C6.02 5.33 4.04 5.66 2 6 C1.34 4.02 0.68 2.04 0 0 Z " fill="#00A5A7" transform="translate(175,87)"/>
<path d="M0 0 C0.99 0 1.98 0 3 0 C3 1.65 3 3.3 3 5 C0.69 5.33 -1.62 5.66 -4 6 C-3.67 5.01 -3.34 4.02 -3 3 C-2.34 3 -1.68 3 -1 3 C-0.67 2.01 -0.34 1.02 0 0 Z " fill="#00DFE9" transform="translate(133,70)"/>
<path d="M0 0 C0 0.66 0 1.32 0 2 C0.66 2 1.32 2 2 2 C2.33 2.99 2.66 3.98 3 5 C0.83125748 4.49396008 -0.99967627 4.00016187 -3 3 C-3 3.66 -3 4.32 -3 5 C-3.99 4.67 -4.98 4.34 -6 4 C-6 3.01 -6 2.02 -6 1 C-3 0 -3 0 0 0 Z " fill="#014D59" transform="translate(116,241)"/>
<path d="M0 0 C0.99 0.33 1.98 0.66 3 1 C2.484375 1.350625 1.96875 1.70125 1.4375 2.0625 C-0.40015526 4.07313586 -0.40015526 4.07313586 0.4375 7.5 C0.623125 8.655 0.80875 9.81 1 11 C0.34 11.99 -0.32 12.98 -1 14 C-2.73849628 12.26150372 -2.17216296 9.9213363 -2.1875 7.5625 C-2.20167969 6.57378906 -2.21585938 5.58507812 -2.23046875 4.56640625 C-2 2 -2 2 0 0 Z " fill="#01BBC4" transform="translate(187,120)"/>
<path d="M0 0 C0.99 0.99 1.98 1.98 3 3 C2.39816251 5.02045442 1.72693904 7.02111039 1 9 C0.01 9.495 0.01 9.495 -1 10 C-1 8.02 -1 6.04 -1 4 C-1.66 3.67 -2.32 3.34 -3 3 C-2.01 2.67 -1.02 2.34 0 2 C0 1.34 0 0.68 0 0 Z " fill="#00C8CA" transform="translate(195,78)"/>
<path d="M0 0 C8.57142857 -0.14285714 8.57142857 -0.14285714 12 1 C11.67 2.32 11.34 3.64 11 5 C3.57142857 1.85714286 3.57142857 1.85714286 0 0 Z " fill="#3E6C8A" transform="translate(214,219)"/>
<path d="M0 0 C2.3125 0.1875 2.3125 0.1875 4 1 C2.875 3 2.875 3 1 5 C-2.1875 5.25 -2.1875 5.25 -5 5 C-2.75 2.4375 -2.75 2.4375 0 0 Z " fill="#0292A0" transform="translate(179,186)"/>
<path d="M0 0 C0.33 0 0.66 0 1 0 C1.125 5.75 1.125 5.75 0 8 C-2.31 8 -4.62 8 -7 8 C-5 5 -5 5 -2 4 C-0.79117904 1.99983534 -0.79117904 1.99983534 0 0 Z " fill="#02ABB5" transform="translate(180,159)"/>
<path d="M0 0 C0.33 0.99 0.66 1.98 1 3 C0.01 3.33 -0.98 3.66 -2 4 C-2.99 5.485 -2.99 5.485 -4 7 C-5.32 6.34 -6.64 5.68 -8 5 C-2.25 0 -2.25 0 0 0 Z " fill="#00A2AD" transform="translate(190,115)"/>
<path d="M0 0 C2.4375 -0.4375 2.4375 -0.4375 5 0 C6.8125 2 6.8125 2 8 4 C7.01 4.495 7.01 4.495 6 5 C6 4.34 6 3.68 6 3 C3.36 3 0.72 3 -2 3 C-1.34 2.01 -0.68 1.02 0 0 Z " fill="#1E8E9D" transform="translate(121,218)"/>
<path d="M0 0 C2.375 0.1875 2.375 0.1875 5 1 C6.4375 3.3125 6.4375 3.3125 7 6 C6.125 8.3125 6.125 8.3125 5 10 C5 8.68 5 7.36 5 6 C4.34 6 3.68 6 3 6 C2.87625 5.195625 2.7525 4.39125 2.625 3.5625 C2.315625 2.2940625 2.315625 2.2940625 2 1 C1.34 0.67 0.68 0.34 0 0 Z " fill="#06656D" transform="translate(132,151)"/>
<path d="M0 0 C0 3 0 3 -1.875 4.9375 C-2.57625 5.618125 -3.2775 6.29875 -4 7 C-5.23512079 9.13309192 -5.23512079 9.13309192 -6 11 C-6 8.36 -6 5.72 -6 3 C-4.02 2.01 -2.04 1.02 0 0 Z " fill="#00B1CD" transform="translate(139,47)"/>
<path d="M0 0 C0.66 0 1.32 0 2 0 C2 2.31 2 4.62 2 7 C1.01 7.33 0.02 7.66 -1 8 C-1.625 5.125 -1.625 5.125 -2 2 C-1.34 1.34 -0.68 0.68 0 0 Z " fill="#028284" transform="translate(182,121)"/>
<path d="M0 0 C1.98 0 3.96 0 6 0 C6 0.99 6 1.98 6 3 C5.01 3.33 4.02 3.66 3 4 C2.67 4.99 2.34 5.98 2 7 C1.34 6.67 0.68 6.34 0 6 C0 5.01 0 4.02 0 3 C0.66 2.67 1.32 2.34 2 2 C1.34 1.34 0.68 0.68 0 0 Z " fill="#07848A" transform="translate(126,83)"/>
<path d="M0 0 C-0.33 1.32 -0.66 2.64 -1 4 C-2.98 4.33 -4.96 4.66 -7 5 C-6.625 3.0625 -6.625 3.0625 -6 1 C-4 0 -4 0 0 0 Z " fill="#02A0A8" transform="translate(120,72)"/>
<path d="M0 0 C0.33 0.66 0.66 1.32 1 2 C0.67 2.99 0.34 3.98 0 5 C-2.31 5 -4.62 5 -7 5 C-6.67 4.01 -6.34 3.02 -6 2 C-2.9375 0.8125 -2.9375 0.8125 0 0 Z " fill="#01888D" transform="translate(128,66)"/>
<path d="M0 0 C1.65 0.33 3.3 0.66 5 1 C5.33 2.32 5.66 3.64 6 5 C3.69 4.67 1.38 4.34 -1 4 C-0.67 2.68 -0.34 1.36 0 0 Z " fill="#3F3F47" transform="translate(82,240)"/>
<path d="M0 0 C1.98 0 3.96 0 6 0 C6.33 0.99 6.66 1.98 7 3 C4.03 3 1.06 3 -2 3 C-1.34 2.67 -0.68 2.34 0 2 C0 1.34 0 0.68 0 0 Z " fill="#07747E" transform="translate(173,153)"/>
<path d="M0 0 C0.33 0 0.66 0 1 0 C1 2.31 1 4.62 1 7 C-1.97 6.505 -1.97 6.505 -5 6 C-4.67 4.68 -4.34 3.36 -4 2 C-3.34 2.33 -2.68 2.66 -2 3 C-2 3.66 -2 4.32 -2 5 C-1.34 5 -0.68 5 0 5 C-0.2784375 4.0409375 -0.2784375 4.0409375 -0.5625 3.0625 C-0.706875 2.381875 -0.85125 1.70125 -1 1 C-0.67 0.67 -0.34 0.34 0 0 Z " fill="#167371" transform="translate(198,145)"/>
<path d="M0 0 C2.69921875 0.14453125 2.69921875 0.14453125 5.6875 0.8125 C6.68136719 1.02519531 7.67523438 1.23789063 8.69921875 1.45703125 C9.83810547 1.72580078 9.83810547 1.72580078 11 2 C11 2.33 11 2.66 11 3 C6.38 3 1.76 3 -3 3 C-2.01 2.01 -1.02 1.02 0 0 Z " fill="#008A99" transform="translate(200,178)"/>
<path d="M0 0 C0 0.99 0 1.98 0 3 C-0.639375 3.2475 -1.27875 3.495 -1.9375 3.75 C-4.19060573 4.80148727 -4.19060573 4.80148727 -4.625 7.0625 C-4.74875 7.701875 -4.8725 8.34125 -5 9 C-5.99 9.495 -5.99 9.495 -7 10 C-6.875 7.25 -6.875 7.25 -6 4 C-2.9375 1.625 -2.9375 1.625 0 0 Z " fill="#01A0AC" transform="translate(172,177)"/>
<path d="M0 0 C1.32 0.33 2.64 0.66 4 1 C2.68 1.99 1.36 2.98 0 4 C0 2.68 0 1.36 0 0 Z M-2 4 C-1.34 4.33 -0.68 4.66 0 5 C-0.66 6.32 -1.32 7.64 -2 9 C-2.66 9 -3.32 9 -4 9 C-3.34 7.35 -2.68 5.7 -2 4 Z " fill="#00BDC7" transform="translate(129,87)"/>
<path d="M0 0 C1.98 0.66 3.96 1.32 6 2 C6 2.66 6 3.32 6 4 C6.66 4.33 7.32 4.66 8 5 C7.401875 4.835 6.80375 4.67 6.1875 4.5 C3.88655664 3.8885876 3.88655664 3.8885876 1 4 C0.67 2.68 0.34 1.36 0 0 Z " fill="#029BA0" transform="translate(172,67)"/>
<path d="M0 0 C0.66 0 1.32 0 2 0 C2.28875 0.61875 2.5775 1.2375 2.875 1.875 C3.93720042 4.13325765 3.93720042 4.13325765 6 6 C5.01 6.495 5.01 6.495 4 7 C1.375 5.5625 1.375 5.5625 -1 4 C-0.67 2.68 -0.34 1.36 0 0 Z " fill="#005D4F" transform="translate(96,240)"/>
<path d="M0 0 C1.32 0 2.64 0 4 0 C4 0.66 4 1.32 4 2 C4.99 2.33 5.98 2.66 7 3 C6.21625 3.103125 5.4325 3.20625 4.625 3.3125 C1.66954819 3.77595022 1.66954819 3.77595022 0 7 C0 4.69 0 2.38 0 0 Z " fill="#0496A1" transform="translate(105,116)"/>
<path d="M0 0 C2.64 0.33 5.28 0.66 8 1 C8 1.66 8 2.32 8 3 C5.6875 3.625 5.6875 3.625 3 4 C2.01 3.34 1.02 2.68 0 2 C0 1.34 0 0.68 0 0 Z " fill="#296691" transform="translate(149,219)"/>
<path d="M0 0 C0.66 0 1.32 0 2 0 C2.33 1.98 2.66 3.96 3 6 C1.68 6 0.36 6 -1 6 C-1.625 4.125 -1.625 4.125 -2 2 C-1.34 1.34 -0.68 0.68 0 0 Z " fill="#01A1AB" transform="translate(164,146)"/>
<path d="M0 0 C0.66 0 1.32 0 2 0 C2.33 2.31 2.66 4.62 3 7 C2.34 7 1.68 7 1 7 C-1 4 -1 4 -0.625 1.8125 C-0.41875 1.214375 -0.2125 0.61625 0 0 Z " fill="#00C1CE" transform="translate(164,50)"/>
<path d="M0 0 C1.98 0 3.96 0 6 0 C6 0.99 6 1.98 6 3 C4.02 3 2.04 3 0 3 C0 2.01 0 1.02 0 0 Z " fill="#176A5D" transform="translate(89,221)"/>
<path d="M0 0 C0 1.32 0 2.64 0 4 C-2.31 4.33 -4.62 4.66 -7 5 C-2.25 0 -2.25 0 0 0 Z " fill="#046A71" transform="translate(169,156)"/>
<path d="M0 0 C3.65316671 1.24976756 4.78065836 1.67098753 7 5 C6.67 5.99 6.34 6.98 6 8 C4.9970458 6.85675161 3.99770973 5.71032809 3 4.5625 C2.443125 3.92441406 1.88625 3.28632813 1.3125 2.62890625 C0 1 0 1 0 0 Z " fill="#006575" transform="translate(119,125)"/>
<path d="M0 0 C0 0.66 0 1.32 0 2 C-1.98 2.33 -3.96 2.66 -6 3 C-6.33 2.01 -6.66 1.02 -7 0 C-4.3333581 -1.33332095 -2.83319697 -0.67102033 0 0 Z " fill="#00BDC6" transform="translate(167,79)"/>
<path d="M0 0 C3.26954202 0.56371414 4.82575883 1.49962266 7 4 C6.67 4.66 6.34 5.32 6 6 C4.02 5.34 2.04 4.68 0 4 C0 2.68 0 1.36 0 0 Z " fill="#059594" transform="translate(182,72)"/>
<path d="M0 0 C-1.3125 1.5 -1.3125 1.5 -3 3 C-3.99 3 -4.98 3 -6 3 C-6 2.01 -6 1.02 -6 0 C-3.50907189 -1.24546405 -2.58919267 -0.7767578 0 0 Z " fill="#007D6B" transform="translate(197,222)"/>
<path d="M0 0 C0.99 0 1.98 0 3 0 C2.67 1.65 2.34 3.3 2 5 C0.35 5 -1.3 5 -3 5 C-2.34 4.67 -1.68 4.34 -1 4 C-0.34786708 1.97536745 -0.34786708 1.97536745 0 0 Z " fill="#02919B" transform="translate(113,157)"/>
<path d="M0 0 C0.78375 0.04125 1.5675 0.0825 2.375 0.125 C1.75625 0.3725 1.1375 0.62 0.5 0.875 C-1.97568687 2.33128639 -2.57625002 3.50312506 -3.625 6.125 C-4.25 4.25 -4.25 4.25 -4.625 2.125 C-2.625 0.125 -2.625 0.125 0 0 Z " fill="#038391" transform="translate(83.625,151.875)"/>
</svg>
